<?xml version="1.0" encoding="UTF-8"?><svg xmlns="http://www.w3.org/2000/svg" viewBox="0 0 1696.97 613.72"><defs><style>.cls-1{fill:#00b0f0;}.cls-1,.cls-2,.cls-3,.cls-4{stroke-width:0px;}.cls-2{fill:#00b0f0;}.cls-3{fill:#fff;}.cls-4{fill:#02afef;}</style></defs><g id="Layer_2"><path class="cls-4" d="M566.85,514.3s15.48,46.44-51.21,63.12c-104.91,26.23-101.23-67.88-101.23-67.88-19.05,8.34-27.37,11.73-33.34,14.29-109.56,46.95-271.23-8.86-258.87-200.97.33-5.93-1.16-10.18-5.4-14.58-39.8-41.28-44.57-104.29-11.73-150.84,33.26-47.13,94.25-64.3,146.94-40.92,6.25,2.77,11.09,2.78,17.31.15,37.64-15.94,77.05-20.63,117.49-16.34,6.95.74-11.69,9.33-11.43,2.32,4.78-137.28,213.59-136.67,217.63.83,66.7-31.26,136.95-21.7,194.16,30.95,6.03,5.36,85.71-48.4,161.96,15.48,44.06,36.92,51.21-91.7,209.61-18.29,6.25,2.9,5.96,6.8,12.48,3.66,35.51-17.08,69.54-13.57,101.11,9.88,5.17,3.84,8.12,3.56,13.31.42,83.43-50.53,167.26-50.93,251.05-.95,5.83,3.48,8.88,3.04,13.96-1.17,53.48-50.25,149.35-7.34,146.25,66.03.3,73.14-59.39,71.76-56.45,91.98,39,189.98-215.05,339.65-334.05,186.65-27.39,50.02-57.16,60.74-117.9,36.92,0,0-28.58,29.77-55.97,40.49-26.8,10.49-99.24,35.71-152.43-53.59-.47.95-.94,1.89-1.42,2.82-29.78,57.69-95.18,87.28-158.68,73.74-65.11-13.88-86.42-47.98-86.42-47.98-2.38,97.65-166.72,105.99-166.72-26.2M1602.93,243.96h10.72s-.54-22.81-.54-31.15c5.02,8.25,12.45,31.15,12.45,31.15h8.34c.5-.51,13.1-30.96,13.1-30.96v30.96h11.91v-52.4h-15.48l-13.1,33.34h0l-11.91-33.34h-15.48M1579.11,243.96v-42.87h16.67v-9.53s-21.44.03-21.44,0c-4.47,0-22.63,0-22.63,0v9.53c.21.13,16.67,0,16.67,0v42.87"/></g><g id="Layer_1"><path class="cls-3" d="M284.5,454.14c-14.33,0-28.46-.19-41.7-.38-26.34-.38-36.75-10.99-37.15-37.83-.34-22.7-.26-45.75-.19-68.05.02-7.49.05-14.97.06-22.46l-.07-6.58c0-9.68-.03-19.36-.05-29.04-.06-22.29-.13-45.33.16-68.02.34-26.9,11.62-37.97,38.96-38.22l7.41-.07c11.36-.11,23.1-.22,34.67-.22,17.48,0,31.86.25,45.28.8,48.87,1.99,84.33,28.33,99.85,74.19,14.25,42.11,13.8,83.97-1.32,124.41-16.44,43.97-49.83,68.34-96.56,70.47-14.72.67-30.86,1-49.34,1ZM272.53,398.16c10.73,1.54,20.64,2.32,29.53,2.32h0c28.54,0,47.51-7.73,58.01-23.63,18.63-28.24,18.96-90.92.61-115.63-15.7-21.14-36.48-22.89-58.19-22.89-3.15,0-6.31.04-9.48.09-3.2.04-6.5.09-9.78.09-3.99,0-7.48-.07-10.69-.21v159.87Z"/><path class="cls-2" d="M286.6,190.28c15.01,0,30.01.18,44.99.79,45.83,1.86,78.94,26.4,93.5,69.44,13.47,39.82,13.5,80.29-1.24,119.72-15.32,40.97-45.89,63.9-90.32,65.93-16.32.74-32.68.99-49.03.99-13.86,0-27.73-.18-41.59-.38-22.6-.33-29.91-7.91-30.26-30.94-.48-32.32-.12-64.65-.12-96.98h-.08c0-32.33-.3-64.66.1-96.98.29-23.16,8.45-31.09,32.03-31.31,14-.13,28.01-.29,42.02-.29M302.06,407.48c31.04,0,52.08-8.92,63.85-26.77,19.9-30.15,20.86-96.08.38-123.66-17.27-23.26-39.99-25.72-63.81-25.72-6.37,0-12.82.18-19.27.18-5.92,0-11.84-.15-17.69-.72v173.38c13.44,2.21,25.61,3.32,36.53,3.32M286.6,176.28c-11.61,0-23.39.11-34.78.22l-7.37.07c-10.01.09-24.47,1.33-34.4,11.03-10.05,9.81-11.38,24.16-11.5,34.1-.28,22.74-.22,45.82-.16,68.13.03,9.52.05,19.36.05,29.03v14h.06c-.01,5.05-.03,10.07-.05,15.01-.07,22.33-.15,45.41.19,68.17.16,10.65,1.52,24.08,10.76,33.55,9.38,9.62,22.72,11.03,33.3,11.18,12.67.18,27.39.38,41.79.38,18.6,0,34.85-.33,49.67-1.01,24.81-1.13,46.26-8.22,63.73-21.06,17.29-12.71,30.43-30.86,39.07-53.95,15.7-41.99,16.17-85.43,1.39-129.11-8.17-24.16-21.61-43.31-39.94-56.92-18.29-13.57-40.58-20.98-66.25-22.03-13.51-.55-27.98-.8-45.56-.8h0ZM283.23,245.5c3.33,0,6.66-.05,9.88-.09,3.24-.04,6.31-.09,9.39-.09,24.43,0,40.04,3.2,52.57,20.07,16.67,22.45,16.21,81.78-.83,107.61-9.1,13.78-26.16,20.48-52.17,20.48-6.88,0-14.43-.49-22.53-1.46v-146.54c1.19.01,2.42.02,3.69.02h0Z"/><path class="cls-3" d="M1432.66,457.6c-33.06,0-60.9-20.27-74.48-54.24-12.24-30.63-13.37-62.41-3.34-94.46,5.68-18.15,16.63-33.4,31.66-44.09,14.38-10.23,31.41-15.64,49.26-15.64,19.84,0,38.83,6.7,54.91,19.37.43.34.86.68,1.29,1.03v-2.16c0-13.26,0-25.3.01-37.34,0-1.54-.02-3.09-.03-4.63-.05-4.52-.1-9.18.31-13.91.7-8,2.82-32.32,29.33-33.62.57-.03,1.13-.04,1.69-.04,17.66,0,28.69,13.52,28.8,35.27.33,66.75.23,134.6.12,200.23v3.91c-.01,14.02-.02,35.22-24.55,39.52-2.44.43-4.8.64-7.02.64-16.71,0-23.5-11.77-26.57-21.29-2.83,1.47-5.62,2.99-8.37,4.48-11.61,6.29-23.61,12.8-36.55,15.35-5.53,1.09-11.07,1.64-16.48,1.64ZM1449.29,299.63c-17.08,0-30.41,12.57-35.65,33.62-.27,1.07-.54,2.14-.83,3.22-1.5,5.76-2.92,11.2-2.78,17.71.14,6.78,2,15.35,5.7,26.19,5.27,15.47,18.6,25.65,33.98,25.95.26,0,.52,0,.78,0,16.58,0,29.88-10.07,33.89-25.67,3.52-13.71,4.54-29.72,2.88-45.07-2.15-19.74-17.24-34.84-35.9-35.9-.69-.04-1.38-.06-2.06-.06Z"/><path class="cls-2" d="M1523.27,184.85c13.44,0,21.71,10.21,21.8,28.31.34,67.63.22,135.25.12,202.88-.02,14.52.52,30.46-18.75,33.84-2.1.37-4.03.54-5.81.54-15.69,0-19.68-13.37-21.88-24.45-17.76,8.34-33.57,19.69-50.96,23.12-5.15,1.02-10.21,1.51-15.12,1.51-30.44,0-55.63-18.94-67.98-49.84-11.75-29.39-12.51-59.87-3.16-89.77,10.91-34.85,41.78-54.83,74.24-54.83,17.34,0,35.13,5.7,50.58,17.87,3.17,2.5,6.23,5.13,12.62,10.42,0-20.42-.02-37.4,0-54.38,0-5.98-.27-12,.25-17.94,1.23-14.13,5.51-26.4,22.69-27.24.45-.02.9-.03,1.35-.03M1450.49,413.33c18.61,0,35.54-10.96,40.67-30.92,3.9-15.19,4.76-31.93,3.05-47.57-2.62-24.07-21.41-40.93-42.46-42.13-.83-.05-1.65-.07-2.46-.07-20.24,0-36.37,14.53-42.44,38.93-1.72,6.9-4,13.95-3.81,22.77.18,8.79,2.84,18.82,6.07,28.3,6.38,18.75,22.5,30.34,40.47,30.69.3,0,.61,0,.91,0M1523.27,170.85c-.67,0-1.35.02-2.03.05-15.52.76-23.9,8.43-28.2,14.73-5.7,8.34-7.15,18.42-7.75,25.28-.44,5.06-.39,9.9-.34,14.58.02,1.52.03,3.04.03,4.56-.01,8.52-.01,17.04-.01,26-14.99-9.12-31.78-13.89-49.2-13.89-19.31,0-37.75,5.86-53.32,16.94-16.29,11.59-28.14,28.09-34.28,47.71-5.16,16.5-7.51,33.22-6.97,49.72.55,16.77,4.07,33.4,10.49,49.43,7.06,17.66,18.09,32.38,31.9,42.57,14.24,10.51,31.21,16.07,49.09,16.07,5.86,0,11.86-.6,17.83-1.78,13.98-2.76,26.46-9.52,38.53-16.07.5-.27,1-.54,1.5-.81.75,1.47,1.6,2.91,2.55,4.3,6.34,9.27,15.87,14.17,27.55,14.17,2.62,0,5.39-.25,8.22-.75,16.7-2.93,23.91-12.98,27.01-20.9,3.31-8.44,3.32-17.51,3.32-25.51v-1.2s0-2.42,0-2.42c.1-65.73.21-133.69-.12-200.56-.06-12.11-3.04-22.03-8.85-29.48-6.42-8.22-15.99-12.75-26.94-12.75h0ZM1450.49,399.33c-.22,0-.43,0-.65,0-12.58-.24-23.11-8.37-27.48-21.2-3.46-10.16-5.2-18.03-5.33-24.08-.12-5.55,1.12-10.3,2.56-15.81.29-1.1.57-2.2.84-3.29,4.48-17.99,15-28.31,28.86-28.31.55,0,1.11.02,1.66.05,15.23.87,27.57,13.35,29.34,29.67,1.58,14.53.62,29.65-2.7,42.57-3.87,15.05-16.54,20.41-27.11,20.41h0Z"/><path class="cls-3" d="M1071.87,457.56c-61.45,0-102.93-41.39-103.21-102.99-.14-31,9.79-57.44,28.72-76.46,18.61-18.7,44.33-28.58,74.37-28.58h.31c30.18.07,55.93,9.97,74.47,28.64,18.86,18.99,28.76,45.5,28.62,76.65-.14,30.4-9.98,56.2-28.46,74.6-18.48,18.4-44.34,28.13-74.76,28.14h-.06ZM1071.79,293.84c-37.68,0-51.35,35.7-51.35,59.69,0,28.32,8.91,62.07,51.35,62.07,38.17,0,53.74-17.98,53.74-62.07,0-28.86-14.12-59.69-53.74-59.69Z"/><path class="cls-2" d="M1071.75,256.54c.1,0,.2,0,.3,0,58.17.13,96.37,39.18,96.1,98.26-.26,58.11-38.07,95.74-96.23,95.77h-.05c-57.61,0-95.94-38.25-96.21-96.02-.27-58.77,38.22-98.01,96.09-98.01M1071.79,422.6c50.02,0,60.74-30.96,60.74-69.07s-20.24-66.69-60.74-66.69-58.35,36.89-58.35,66.69c0,40.49,17.86,69.07,58.35,69.07M1071.75,242.54c-31.95,0-59.38,10.6-79.33,30.64-10.01,10.06-17.74,22.17-22.97,35.99-5.24,13.84-7.86,29.13-7.79,45.44.15,32.12,10.77,59.62,30.71,79.52,19.95,19.91,47.44,30.44,79.5,30.44h.05c32.32-.01,59.88-10.45,79.7-30.18,19.83-19.73,30.38-47.23,30.53-79.53.15-33.05-10.45-61.28-30.66-81.62-19.88-20.01-47.34-30.63-79.42-30.7h-.33ZM1071.79,408.6c-29.43,0-44.35-18.53-44.35-55.07,0-21.18,11.81-52.69,44.35-52.69,43.36,0,46.74,40.33,46.74,52.69,0,18.9-2.94,32.21-9,40.69-6.91,9.68-19.26,14.38-37.73,14.38h0Z"/><path class="cls-3" d="M648.07,457.11c-13.63,0-27.09-2.23-40.01-6.64-9.25-3.15-16.67-6.19-23.34-9.55-10.3-5.19-20.08-17.57-23.8-30.12-3-10.12,2.15-26.53,10.4-33.13,4.35-3.48,9.37-5.32,14.51-5.32,9.14,0,17.8,5.78,23.17,15.46,8.69,15.65,20.91,23.59,36.32,23.59,3.38,0,6.94-.39,10.59-1.16,8.03-1.7,17.94-8.63,20.01-14,1.06-2.76.56-4.38.1-5.36-1.63-3.42-6.95-6.79-14.59-9.26-7.63-2.46-15.55-4.71-23.21-6.88-11.23-3.19-22.84-6.48-34.08-10.58-30.33-11.08-44.61-28.94-43.68-54.58.95-26.19,19.65-47.41,48.8-55.38,12.15-3.32,24.2-5,35.81-5,17.1,0,33.47,3.63,48.66,10.78,12.14,5.72,23.12,15.29,29.36,25.62,5.17,8.56,3.2,28.67-5.29,34.06-3.71,2.36-8.38,3.5-14.27,3.5-5.2,0-11.13-.87-18.68-2.74-5.92-1.47-9.66-6.51-12.96-10.96-1.05-1.42-2.04-2.76-2.99-3.82-6.86-7.72-14.87-11.48-24.48-11.48-4.49,0-9.32.85-14.36,2.52-4.24,1.41-9.5,7.08-9.76,9.25.07,2.06,4.58,8.18,8.32,9.86,7.58,3.41,15.79,5.56,24.49,7.83,4.72,1.24,9.6,2.51,14.39,4.02,2.08.65,4.16,1.29,6.25,1.93,10.07,3.09,20.49,6.29,30.33,10.83,22.21,10.23,33.88,26.77,33.75,47.85-.17,26.7-11.34,46.43-31.45,55.56-7.27,3.3-15.33,6.08-26.15,9.01-10.47,2.84-21.3,4.28-32.18,4.28Z"/><path class="cls-2" d="M645.08,256.21c15.58,0,30.94,3.17,45.68,10.11,10.32,4.86,20.59,13.37,26.35,22.91,3.6,5.95,1.7,21.51-3.05,24.53-2.77,1.76-6.48,2.41-10.52,2.41-5.59,0-11.8-1.25-16.99-2.54-4.9-1.21-8.42-8.15-12.4-12.63-8.59-9.67-18.81-13.83-29.72-13.83-5.39,0-10.95,1.01-16.57,2.88-6.22,2.06-14.11,9.74-14.54,15.35-.42,5.44,6.57,14.15,12.43,16.79,12.49,5.62,26.44,8,39.65,12.15,12.05,3.78,24.35,7.19,35.75,12.44,17.46,8.04,29.81,21.04,29.68,41.44-.13,21.02-7.5,40.23-27.34,49.23-7.94,3.61-16.33,6.25-25.08,8.63-9.94,2.7-20.15,4.03-30.35,4.03-12.78,0-25.54-2.1-37.76-6.26-7.71-2.63-15.26-5.55-22.45-9.17-9.1-4.58-17.3-15.92-20.23-25.85-2.21-7.45,1.96-20.8,8.06-25.68,3.23-2.58,6.71-3.79,10.14-3.79,6.52,0,12.88,4.34,17.05,11.86,9.86,17.76,24.44,27.19,42.44,27.19,3.86,0,7.87-.43,12.03-1.31,9.56-2.02,21.92-10.06,25.1-18.34,4.87-12.69-7.36-20.07-18.88-23.79-18.91-6.1-38.4-10.57-57.03-17.38-27.87-10.18-39.88-25.85-39.09-47.75.83-22.77,16.95-41.58,43.65-48.88,11.33-3.09,22.7-4.75,33.97-4.75M645.08,242.21c-12.24,0-24.91,1.77-37.66,5.25-32.21,8.8-52.88,32.51-53.95,61.87-.91,24.96,11.29,43.85,36.3,56.3-1.3-.18-2.61-.27-3.94-.27-6.75,0-13.28,2.37-18.89,6.86-10.47,8.38-16.54,27.72-12.74,40.58,3.57,12.05,13.41,27.35,27.36,34.38,6.96,3.51,14.66,6.66,24.23,9.92,13.65,4.65,27.88,7.01,42.27,7.01,11.5,0,22.94-1.52,34.01-4.52,11.19-3.03,19.58-5.93,27.21-9.39,22.74-10.32,35.37-32.3,35.55-61.89.11-16.76-6.37-39.77-37.82-54.25-3.43-1.58-6.91-3-10.4-4.3,2.44.28,4.73.41,6.92.41,7.16,0,13.22-1.54,18.02-4.59,7.55-4.8,10.18-14.21,11.05-21.27.63-5.12,1.01-14.82-3.52-22.32-6.93-11.46-19.03-22.05-32.37-28.33-16.13-7.59-33.51-11.44-51.64-11.44h0ZM628.3,306.33c1.24-1.29,2.97-2.64,3.98-3,4.33-1.44,8.41-2.16,12.15-2.16,7.5,0,13.8,2.98,19.25,9.12.74.83,1.64,2.05,2.6,3.34,2,2.7,4.42,5.96,7.61,8.67-1.43-.44-2.86-.88-4.29-1.33-4.95-1.55-9.91-2.85-14.71-4.11-8.4-2.2-16.34-4.28-23.39-7.45-.85-.43-2.21-1.8-3.2-3.09h0ZM645.32,404.41c-12.85,0-22.73-6.54-30.2-19.99-2.94-5.3-6.73-9.65-11.07-12.85,10.74,3.81,21.66,6.91,32.25,9.91,7.6,2.16,15.45,4.38,22.97,6.81,6.34,2.04,9.26,4.27,10.17,5.28-.02.05-.04.1-.06.16-.97,2.41-8.32,8.27-14.92,9.67-3.17.67-6.25,1.01-9.14,1.01h0Z"/><path class="cls-3" d="M865.23,457.56c-55.39,0-90.57-21.26-104.55-63.19-7.6-22.78-8.3-48.08-1.97-71.24,6.39-23.41,19.53-43.06,36.99-55.35,16.72-11.76,38.76-18.24,62.08-18.24,24.47,0,47.16,7.09,63.89,19.97,8.28,6.37,16.13,15.74,23.34,27.84,4.31,7.23,5.64,14.73,3.86,21.68-1.8,6.99-6.66,12.98-14.06,17.33-4.82,2.83-9.68,4.27-14.43,4.27-5.98,0-14.83-2.35-23-13.54-11.76-16.1-21.62-25.42-37.24-25.42-1.16,0-2.37.05-3.59.16-.86.08-1.73.11-2.59.15-.92.04-1.78.07-2.49.17-9.41,1.31-17.54,6.37-23.52,14.66-9.67,13.38-12.92,33.52-8.92,55.25,3.97,21.57,19.08,36.06,37.61,36.06,4.12,0,8.37-.7,12.63-2.09,9.42-3.06,18.42-12.37,26.75-21.97,1.05-1.21,2.07-2.45,3.08-3.67,6.1-7.4,13.02-15.78,24.49-15.78,4.17,0,8.43,1.12,13.04,3.43,6.82,3.42,11.71,9.36,13.77,16.72,2.69,9.64.53,20.74-6.09,31.27-21.07,33.51-54.43,41.09-78.7,41.55h-.37Z"/><path class="cls-2" d="M857.78,256.53c21.77,0,43.51,6.12,59.62,18.52,8.74,6.73,15.9,16.32,21.59,25.88,6.67,11.21,4.2,22.38-7.73,29.39-3.86,2.26-7.49,3.3-10.89,3.3-6.69,0-12.49-4.02-17.34-10.67-10.95-15-22.86-28.29-42.89-28.29-1.36,0-2.76.06-4.2.19-1.81.16-3.64.1-5.43.35-29.32,4.07-45.81,37.65-38.37,78.11,4.61,25.08,22.46,41.8,44.5,41.8,4.77,0,9.73-.78,14.79-2.43,11.47-3.73,21.56-14.46,29.88-24.04,6.93-7.99,12.59-17.03,22.28-17.03,2.89,0,6.14.81,9.9,2.69,12.43,6.23,14.74,22.33,4.89,38-18.66,29.68-48.17,37.81-72.91,38.28-.08,0-.16,0-.23,0-53.94,0-85.23-20.37-97.91-58.4-14.81-44.42-.95-95.18,32.4-118.65,16-11.26,37.04-16.97,58.05-16.97M857.78,242.53c-24.75,0-48.23,6.93-66.11,19.52-18.79,13.22-32.89,34.26-39.71,59.23-6.68,24.48-5.94,51.22,2.08,75.3,7.48,22.42,20.76,39.58,39.47,50.99,18.48,11.27,42.61,16.98,71.71,16.98h.5c16.23-.31,31.11-3.48,44.25-9.43,16.7-7.57,30.24-19.47,40.25-35.39,7.68-12.22,10.14-25.32,6.9-36.88-2.59-9.29-8.77-16.78-17.38-21.09-5.52-2.77-10.96-4.17-16.17-4.17-14.77,0-23.51,10.59-29.89,18.33-1.02,1.24-1.99,2.41-2.96,3.54-4.79,5.52-14.76,17.02-23.63,19.9-3.56,1.16-7.08,1.74-10.47,1.74-15.28,0-27.34-11.9-30.73-30.33-3.65-19.86-.84-38.05,7.71-49.89,4.91-6.79,11.24-10.77,18.81-11.82.36-.05,1.09-.08,1.79-.1.87-.03,1.85-.07,2.94-.17,1.01-.09,2.01-.13,2.96-.13,12.72,0,20.92,7.93,31.6,22.55,9.9,13.56,21.05,16.41,28.65,16.41,6.02,0,12.07-1.76,17.98-5.23,9.05-5.31,15.03-12.79,17.3-21.62,2.26-8.79.66-18.13-4.62-27-7.66-12.87-16.1-22.89-25.08-29.81-17.95-13.82-42.15-21.42-68.16-21.42h0Z"/><path class="cls-3" d="M1230.86,457.3c-.4,0-.81,0-1.23-.02-18.29-.49-29.01-12.07-29.41-31.76-.38-18.88-.38-38.05-.39-56.59,0-5.75,0-11.51-.02-17.26,0-4.39-.03-8.78-.04-13.17-.06-15.76-.12-32.05.15-48.11v-.29c.25-14.32.62-35.95,25.78-39.76,2.03-.31,4-.46,5.87-.46,7.65,0,19.88,2.77,25.72,19.01,13.86-11.9,26.79-19.39,41.4-19.39,8.22,0,16.84,2.36,27.15,7.42,23.89,11.73,21.73,28.47,18.32,37.4-4.12,10.79-12.33,16.49-23.74,16.49-3.9,0-8.28-.65-13.39-1.98-7.54-1.97-13.65-2.93-18.69-2.93-12.02,0-19.6,4.74-22.79,28.97-2.14,16.32-2.53,33.34-2.91,49.8-.16,6.96-.32,14.16-.62,21.25-.11,2.56-.08,5.14-.04,7.88.05,3.97.09,8.07-.29,12.25-2.52,27.2-20.4,31.26-30.84,31.26Z"/><path class="cls-2" d="M1298.7,256.49c7.49,0,15.18,2.34,24.06,6.7,12.18,5.98,20.14,14.8,14.87,28.61-3.43,8.98-9.67,11.99-17.21,11.99-3.63,0-7.56-.7-11.62-1.76-7.89-2.06-14.67-3.15-20.46-3.15-17.97,0-26.5,10.49-29.73,35.06-3.11,23.65-2.59,47.77-3.58,71.68-.27,6.58.29,13.23-.31,19.77-1.35,14.59-7.84,24.9-23.87,24.9-.34,0-.69,0-1.04-.01-15.92-.43-22.31-10.6-22.6-24.91-.49-24.57-.35-49.15-.4-73.73-.04-20.38-.24-40.77.11-61.15.25-14.62.38-30.31,19.83-33.25,1.71-.26,3.31-.38,4.83-.38,13.96,0,19.86,10.63,21.54,25.25,18.7-17.74,31.81-25.63,45.58-25.63M1298.7,242.49c-14.07,0-26.41,5.81-38.97,15.39-8.44-13.17-21.52-15.01-28.15-15.01-2.23,0-4.56.18-6.92.54-17.07,2.58-24.59,12.63-27.9,20.6-3.53,8.52-3.69,17.78-3.83,25.96v.3c-.28,16.13-.22,32.46-.16,48.26.02,4.39.03,8.77.04,13.16.01,5.77.01,11.55.02,17.32,0,18.55.01,37.73.39,56.65.21,10.77,3.12,19.62,8.64,26.3,4.47,5.4,12.87,11.93,27.57,12.32.48.01.95.02,1.42.02,14.74,0,23.39-6.44,28.04-11.84,5.49-6.36,8.77-15.03,9.77-25.77.42-4.54.37-8.82.32-12.97-.03-2.64-.06-5.14.04-7.51.3-7.16.46-14.39.62-21.38.39-17.02.75-33.11,2.85-49.05,1.57-11.96,4.23-17.24,6.18-19.56,1.45-1.72,3.62-3.32,9.67-3.32,4.37,0,10.07.91,16.92,2.7,5.7,1.49,10.66,2.21,15.16,2.21,14.36,0,25.11-7.46,30.28-20.99,3.43-8.98,8.18-31.46-21.77-46.18-11.3-5.55-20.91-8.14-30.23-8.14h0Z"/><path class="cls-3" d="M500.98,457.41c-11.1-.03-29.81-4.57-30.42-34.73-.34-16.47-.26-33.19-.18-49.35.03-6.91.07-13.83.07-20.74,0-6.93-.03-13.86-.06-20.79-.07-15.56-.14-31.65.18-47.5.44-21.32,12.05-34.57,30.31-34.57.22,0,.44,0,.67,0,18.2.33,30.52,14.45,30.66,35.13.34,51.63.32,96.84-.06,138.21-.2,21.5-11.81,34.34-31.07,34.34h-.1Z"/><path class="cls-2" d="M500.88,256.73c.18,0,.36,0,.54,0,14.17.26,23.67,10.82,23.79,28.18.31,46.03.37,92.07-.06,138.1-.17,17.95-9.22,27.4-24.08,27.4-.03,0-.05,0-.08,0-14.88-.03-23.06-9.17-23.44-27.87-.48-23.31-.11-46.63-.11-69.95,0-22.72-.35-45.44.12-68.15.37-17.71,9.28-27.71,23.31-27.71M500.88,242.73h0c-11.01,0-20.75,4.31-27.42,12.12-6.22,7.28-9.64,17.41-9.88,29.3-.33,15.95-.26,32.08-.18,47.68.03,6.81.06,13.85.06,20.76,0,6.89-.04,13.92-.07,20.72-.08,16.2-.16,32.96.18,49.52.26,12.55,3.5,22.56,9.64,29.75,4.6,5.38,13.15,11.81,27.77,11.84h.11c11.46,0,21.13-4.01,27.96-11.61,6.6-7.34,10.01-17.32,10.12-29.67.38-41.42.4-86.67.06-138.33-.08-11.8-3.54-22.01-10.01-29.53-6.78-7.89-16.56-12.35-27.53-12.55-.26,0-.53,0-.8,0h0Z"/><path class="cls-3" d="M502,241.58c-.36,0-.73,0-1.1-.02-18.46-.53-29.5-10.84-30.29-28.27-.37-8.26,2.43-16.07,7.88-21.98,5.59-6.06,13.41-9.57,22.01-9.87.4-.01.8-.02,1.19-.02,17.03,0,30.44,13.21,30.52,30.07.04,8.43-2.93,16.08-8.37,21.54-5.49,5.51-13.25,8.55-21.85,8.55Z"/><path class="cls-2" d="M501.7,188.42c13.19,0,23.46,9.99,23.52,23.1.06,13.56-9.32,23.06-23.22,23.06-.3,0-.59,0-.89-.01-13.95-.4-22.83-6.86-23.5-21.59-.6-13.46,9.52-24.05,23.15-24.54.31-.01.63-.02.94-.02M501.7,174.42h0c-.48,0-.96,0-1.45.03-10.48.37-20.03,4.68-26.9,12.12-6.73,7.29-10.18,16.9-9.73,27.04.95,21.24,14.82,34.31,37.08,34.95.44.01.87.02,1.3.02,10.48,0,20-3.77,26.81-10.61,6.76-6.79,10.45-16.21,10.4-26.51-.1-20.77-16.58-37.03-37.52-37.03h0Z"/><path class="cls-1" d="M33.38,341.33c24.21-17.47,58.45-18.97,84.23-4.03,29.07-5.04,59.81-.25,85.74,13.89,28.95,15.55,51.68,42.26,62.27,73.39,7.28,21.07,8.97,43.97,5.18,65.92,9.31,16.37,12.54,36.08,8.76,54.55-3.99,20.38-16.55,38.85-33.93,50.2-24.06,16.17-57.1,17.09-82.16,2.58-27.9,4.8-57.33.64-82.58-12.24-29.34-14.74-52.74-40.82-64.19-71.61-8.29-22-10.37-46.19-6.43-69.35-9.52-16.66-12.6-36.8-8.54-55.54,4.03-19.15,15.61-36.55,31.63-47.77Z"/><path class="cls-3" d="M46.48,356.8c14.71-9.87,34-12.34,50.76-6.63,5.95,1.89,11.31,5.17,16.7,8.25,21.01-4.58,43.3-3.92,63.63,3.36,32.36,11.18,58.77,38.01,69.39,70.56,6.74,19.84,7.19,41.44,2.75,61.84,5.24,8.59,9.75,17.88,10.81,28,2.6,19.07-5.17,39.05-19.78,51.53-14.27,12.58-34.87,17.36-53.23,12.35-7.32-1.77-13.89-5.57-20.34-9.32-22.13,4.85-45.68,3.78-66.84-4.55-31.24-11.9-56.4-38.48-66.49-70.35-6.47-19.59-6.79-40.81-2.42-60.89-6.75-10.53-11.53-22.65-11.29-35.33-.18-19.34,10.16-38.29,26.35-48.81Z"/><path class="cls-1" d="M197.4,416.05c-10.35-4.75-21.44-8.24-33.04-10.25-.21-.04-.42.06-.53.25-1.43,2.54-3.01,5.85-4.11,8.45-12.48-1.87-24.89-1.87-37.11,0-1.11-2.66-2.74-5.91-4.18-8.45-.11-.19-.32-.28-.53-.25-11.59,2-22.69,5.49-33.04,10.25-.09.04-.17.1-.22.19-21.04,31.44-26.81,62.1-23.98,92.38.01.15.1.29.21.38,13.88,10.2,27.33,16.38,40.53,20.49.21.06.44-.01.57-.19,3.12-4.26,5.9-8.76,8.29-13.49.14-.28,0-.61-.28-.71-4.41-1.68-8.62-3.72-12.66-6.04-.32-.19-.35-.64-.05-.86.85-.64,1.7-1.3,2.51-1.97.15-.12.35-.15.52-.07,26.56,12.13,55.32,12.13,81.57,0,.17-.08.38-.06.53.06.81.67,1.66,1.34,2.52,1.98.29.22.28.68-.04.86-4.04,2.36-8.25,4.36-12.67,6.03-.29.11-.42.44-.28.72,2.44,4.72,5.22,9.22,8.29,13.48.13.18.36.26.57.19,13.26-4.1,26.71-10.29,40.59-20.49.12-.09.2-.23.21-.37,3.38-35.01-5.67-65.42-24-92.38-.04-.09-.12-.15-.21-.19ZM114.24,490.18c-8,0-14.59-7.34-14.59-16.36s6.46-16.36,14.59-16.36,14.71,7.41,14.59,16.36c0,9.02-6.46,16.36-14.59,16.36ZM168.17,490.18c-8,0-14.59-7.34-14.59-16.36s6.46-16.36,14.59-16.36,14.71,7.41,14.59,16.36c0,9.02-6.4,16.36-14.59,16.36Z"/></g></svg>
