<?xml version="1.0" encoding="UTF-8" standalone="no"?>
<svg
   width="97.627136"
   height="96.000626"
   version="1.1"
   id="svg1"
   sodipodi:docname="gitlab_github.svg"
   xml:space="preserve"
   inkscape:version="1.3.2 (091e20ef0f, 2023-11-25)"
   xmlns:inkscape="http://www.inkscape.org/namespaces/inkscape"
   xmlns:sodipodi="http://sodipodi.sourceforge.net/DTD/sodipodi-0.dtd"
   xmlns="http://www.w3.org/2000/svg"
   xmlns:svg="http://www.w3.org/2000/svg"><defs
     id="defs1"><style
       id="style1">.cls-1{fill:#e24329;}.cls-2{fill:#fc6d26;}.cls-3{fill:#fca326;}</style></defs><sodipodi:namedview
     id="namedview1"
     pagecolor="#ffffff"
     bordercolor="#000000"
     borderopacity="0.25"
     inkscape:showpageshadow="2"
     inkscape:pageopacity="0.0"
     inkscape:pagecheckerboard="0"
     inkscape:deskcolor="#d1d1d1"
     inkscape:zoom="7.0334294"
     inkscape:cx="48.553839"
     inkscape:cy="60.781161"
     inkscape:window-width="2256"
     inkscape:window-height="1435"
     inkscape:window-x="0"
     inkscape:window-y="32"
     inkscape:window-maximized="1"
     inkscape:current-layer="svg1" /><path
     id="path1-7"
     style="fill:#000000;fill-opacity:1"
     d="M 48.853516,0 C 21.83857,0 0,21.99985 0,49.2168 c 0,21.75595 13.992336,40.17147 33.404297,46.68945 2.426995,0.49 3.316406,-1.05833 3.316406,-2.36133 0,-1.14099 -0.08008,-5.05196 -0.08008,-9.12695 -13.589972,2.93399 -16.419922,-5.86719 -16.419922,-5.86719 -2.183995,-5.70399 -5.419921,-7.16992 -5.419921,-7.16992 -4.447991,-3.01499 0.324218,-3.01562 0.324218,-3.01562 4.93399,0.326 7.523437,5.05273 7.523438,5.05273 4.36699,7.49598 11.403381,5.37822 14.234375,4.07422 0.351972,-2.76873 1.384227,-4.77804 2.552734,-6.06055 l -3.146484,-2.38281 -13.638672,-10.21289 -0.08398,-0.0586 -0.0293,-0.0234 A 16.625668,16.625668 0 0 1 17.021485,39.53909 l 0.08984,-0.23632 8.970704,-23.35547 a 2.3530767,2.3530767 0 0 1 0.919921,-1.11133 2.3976036,2.3976036 0 0 1 2.740235,0.14844 2.3496515,2.3496515 0 0 1 0.794922,1.20898 l 6.044922,18.49609 h 24.480467 l 6.04492,-18.49609 a 2.3976036,2.3976036 0 0 1 0.79492,-1.20703 2.3976036,2.3976036 0 0 1 2.74023,-0.14648 2.3325258,2.3325258 0 0 1 0.92188,1.10937 l 8.95312,23.36719 0.0918,0.23633 a 16.632519,16.632519 0 0 1 -5.50782,19.19336 l -0.0332,0.0273 -13.7207,10.27539 -3.15234,2.38476 c 1.54374,1.64472 2.79101,4.40954 2.79101,8.58399 0,6.59998 -0.0801,11.89834 -0.0801,13.52734 0,1.304 0.89041,2.85228 3.31641,2.36328 19.41196,-6.51998 33.40429,-24.93545 33.40429,-46.6914 C 97.706916,21.99985 75.787456,0 48.853516,0 Z" /></svg>
