<?xml version="1.0" encoding="UTF-8" standalone="no"?>
<!-- Created with Inkscape (http://www.inkscape.org/) -->

<svg
   width="240.40956mm"
   height="56.019321mm"
   viewBox="0 0 240.40956 56.019321"
   version="1.1"
   id="svg1"
   xml:space="preserve"
   inkscape:version="1.4.2 (ebf0e940d0, 2025-05-08)"
   sodipodi:docname="jetbrains-neovim.svg"
   xmlns:inkscape="http://www.inkscape.org/namespaces/inkscape"
   xmlns:sodipodi="http://sodipodi.sourceforge.net/DTD/sodipodi-0.dtd"
   xmlns:xlink="http://www.w3.org/1999/xlink"
   xmlns="http://www.w3.org/2000/svg"
   xmlns:svg="http://www.w3.org/2000/svg"><sodipodi:namedview
     id="namedview1"
     pagecolor="#ffffff"
     bordercolor="#000000"
     borderopacity="0.25"
     inkscape:showpageshadow="2"
     inkscape:pageopacity="0.0"
     inkscape:pagecheckerboard="0"
     inkscape:deskcolor="#d1d1d1"
     inkscape:document-units="mm"
     inkscape:zoom="0.54552357"
     inkscape:cx="332.7079"
     inkscape:cy="705.74403"
     inkscape:window-width="2256"
     inkscape:window-height="1435"
     inkscape:window-x="0"
     inkscape:window-y="32"
     inkscape:window-maximized="1"
     inkscape:current-layer="layer1"
     showguides="false" /><defs
     id="defs1"><linearGradient
       id="linearGradient25"
       inkscape:collect="always"><stop
         style="stop-color:#16b0ed;stop-opacity:0.80000001;"
         offset="0"
         id="stop25" /><stop
         style="stop-color:#0f59b2;stop-opacity:0.83529413;"
         offset="1"
         id="stop26" /></linearGradient><linearGradient
       id="linearGradient23"
       inkscape:collect="always"><stop
         style="stop-color:#88c649;stop-opacity:0.80000001;"
         offset="0"
         id="stop23" /><stop
         style="stop-color:#439240;stop-opacity:0.8392157;"
         offset="1"
         id="stop24" /></linearGradient><linearGradient
       id="linearGradient21"
       inkscape:collect="always"><stop
         style="stop-color:#7db643;stop-opacity:1;"
         offset="0"
         id="stop21" /><stop
         style="stop-color:#367533;stop-opacity:1;"
         offset="1"
         id="stop22" /></linearGradient><linearGradient
       x1="49.021549"
       y1="-0.079835393"
       x2="49.021549"
       y2="97.845657"
       id="linearGradient-1"
       gradientTransform="scale(0.46153975,2.1666606)"
       gradientUnits="userSpaceOnUse"><stop
         stop-color="#16B0ED"
         stop-opacity="0.800235524"
         offset="0%"
         id="stop1" /><stop
         stop-color="#0F59B2"
         stop-opacity="0.83700023"
         offset="100%"
         id="stop2" /></linearGradient><linearGradient
       x1="326.17365"
       y1="-0.069164939"
       x2="326.17365"
       y2="98.851547"
       id="linearGradient-2"
       gradientTransform="scale(0.46628455,2.1446132)"
       gradientUnits="userSpaceOnUse"><stop
         stop-color="#7DB643"
         offset="0%"
         id="stop3" /><stop
         stop-color="#367533"
         offset="100%"
         id="stop4" /></linearGradient><linearGradient
       x1="103.88479"
       y1="-0.11508822"
       x2="103.88479"
       y2="178.55785"
       id="linearGradient-3"
       gradientTransform="scale(0.84203823,1.1875945)"
       gradientUnits="userSpaceOnUse"><stop
         stop-color="#88C649"
         stop-opacity="0.8"
         offset="0%"
         id="stop5" /><stop
         stop-color="#439240"
         stop-opacity="0.84"
         offset="100%"
         id="stop6" /></linearGradient><linearGradient
       x1="326.17365"
       y1="-0.069164939"
       x2="326.17365"
       y2="98.851547"
       id="linearGradient-2-5"
       gradientTransform="scale(0.46628455,2.1446132)"
       gradientUnits="userSpaceOnUse"><stop
         stop-color="#7DB643"
         offset="0%"
         id="stop3-6" /><stop
         stop-color="#367533"
         offset="100%"
         id="stop4-9" /></linearGradient><linearGradient
       x1="326.17365"
       y1="-0.069164939"
       x2="326.17365"
       y2="98.851547"
       id="linearGradient-2-5-2"
       gradientTransform="scale(0.46628455,2.1446132)"
       gradientUnits="userSpaceOnUse"><stop
         stop-color="#7DB643"
         offset="0%"
         id="stop3-6-6" /><stop
         stop-color="#367533"
         offset="100%"
         id="stop4-9-4" /></linearGradient><linearGradient
       inkscape:collect="always"
       xlink:href="#linearGradient21"
       id="linearGradient1"
       gradientUnits="userSpaceOnUse"
       gradientTransform="matrix(0.46628455,0,0,2.1446132,-2.5914203,94.355838)"
       x1="54.388588"
       y1="153.72807"
       x2="54.388588"
       y2="179.95435" /><linearGradient
       inkscape:collect="always"
       xlink:href="#linearGradient25"
       id="linearGradient2"
       gradientUnits="userSpaceOnUse"
       gradientTransform="matrix(0.46153975,0,0,2.1666606,-2.5914203,94.355838)"
       x1="-21.217438"
       y1="168.56223"
       x2="-21.217438"
       y2="183.45412" /><linearGradient
       inkscape:collect="always"
       xlink:href="#linearGradient23"
       id="linearGradient5"
       gradientUnits="userSpaceOnUse"
       gradientTransform="matrix(0.84203823,0,0,1.1875945,-2.5914203,94.355838)"
       x1="-17.742819"
       y1="320.42413"
       x2="36.82753"
       y2="320.42413" /></defs><g
     inkscape:label="Layer 1"
     inkscape:groupmode="layer"
     id="layer1"
     transform="translate(15.20478,-120.49034)"><g
       id="g8"
       transform="translate(2.22036,-303.57487)"><path
         id="rect6-9-8-9-6-6"
         style="font-variation-settings:normal;vector-effect:none;fill:url(#linearGradient1);fill-opacity:1;stroke:none;stroke-width:0.264583;stroke-linecap:butt;stroke-linejoin:miter;stroke-miterlimit:4;stroke-dasharray:none;stroke-dashoffset:0;stroke-opacity:1;-inkscape-stroke:none;stop-color:#000000"
         d="m 17.09473,424.06521 v 55.86687 l 11.81012,-11.81013 v -32.24609 z" /><path
         id="rect6-9-3-9-5"
         style="font-variation-settings:normal;vector-effect:none;fill:url(#linearGradient2);fill-opacity:1;stroke:none;stroke-width:0.264583;stroke-linecap:butt;stroke-linejoin:miter;stroke-miterlimit:4;stroke-dasharray:none;stroke-dashoffset:0;stroke-opacity:1;-inkscape-stroke:none;stop-color:#000000"
         d="m -17.42514,460.14466 v 7.97781 l 11.8101397,11.80961 v -19.78742 z" /><path
         d="m 96.114409,464.05304 v -36.25208 h 4.405381 v 14.9143 c 1.03366,-1.19774 2.21499,-2.15757 3.54399,-2.87949 1.3454,-0.73833 2.87949,-1.1075 4.60226,-1.1075 1.44385,0 2.74824,0.27072 3.91316,0.81216 1.16493,0.54145 2.15757,1.35361 2.97794,2.4365 0.82037,1.06648 1.45205,2.39548 1.89505,3.98699 0.443,1.57511 0.6645,3.39632 0.6645,5.46365 0,1.83763 -0.24611,3.5522 -0.73833,5.14371 -0.49223,1.57511 -1.20595,2.94512 -2.14117,4.11005 -0.91881,1.14851 -2.05091,2.05912 -3.39632,2.73182 -1.329,0.65629 -2.83027,0.98444 -4.50382,0.98444 -1.60793,0 -2.97794,-0.31174 -4.11005,-0.93522 -1.1157,-0.62348 -2.09194,-1.49307 -2.92871,-2.60877 l -0.2215,2.26422 c -0.131261,0.62348 -0.508631,0.93522 -1.13211,0.93522 z m 11.124191,-21.83 c -1.42744,0 -2.6826,0.32815 -3.76549,0.98444 -1.06648,0.65629 -2.05092,1.58331 -2.95332,2.78105 v 12.05941 c 0.78755,1.08289 1.65714,1.84583 2.60877,2.28883 0.96803,0.443 2.04272,0.6645 3.22405,0.6645 2.32984,0 4.11824,-0.82857 5.3652,-2.48572 1.24696,-1.65714 1.87044,-4.0198 1.87044,-7.08798 0,-1.62433 -0.14766,-3.01895 -0.44299,-4.18388 -0.27893,-1.16492 -0.68911,-2.11655 -1.23056,-2.85488 -0.54144,-0.75474 -1.20594,-1.30439 -1.99349,-1.64894 -0.78755,-0.34455 -1.68176,-0.51683 -2.68261,-0.51683 z m 16.2433,21.83 v -24.93099 h 2.51032 c 0.47581,0 0.80396,0.0902 0.98445,0.27072 0.18048,0.18048 0.30353,0.49222 0.36916,0.93522 l 0.29533,3.88854 c 0.85319,-1.73918 1.90326,-3.09279 3.15022,-4.06082 1.26337,-0.98444 2.74003,-1.47666 4.42999,-1.47666 0.68911,0 1.31259,0.082 1.87044,0.24611 0.55785,0.14767 1.07468,0.36096 1.55049,0.63989 l -0.56605,3.27326 c -0.11485,0.41019 -0.36917,0.61528 -0.76294,0.61528 -0.22971,0 -0.58247,-0.0738 -1.05828,-0.2215 -0.47581,-0.16407 -1.14031,-0.24611 -1.99349,-0.24611 -1.52589,0 -2.80566,0.443 -3.83933,1.329 -1.01725,0.88599 -1.87044,2.17397 -2.55955,3.86393 v 15.87413 z m 37.21194,0 h -1.94427 c -0.42659,0 -0.77115,-0.0656 -1.03366,-0.19689 -0.26252,-0.13126 -0.4348,-0.41018 -0.51683,-0.83677 l -0.49223,-2.31344 c -0.65629,0.59066 -1.29618,1.1239 -1.91966,1.59972 -0.62348,0.4594 -1.27977,0.85318 -1.96888,1.18133 -0.68911,0.31174 -1.42745,0.54965 -2.215,0.71372 -0.77115,0.16407 -1.63253,0.24611 -2.58416,0.24611 -0.96803,0 -1.87864,-0.13126 -2.73182,-0.39378 -0.83678,-0.27893 -1.56691,-0.68911 -2.19039,-1.23055 -0.62348,-0.54145 -1.1239,-1.22235 -1.50127,-2.04272 -0.36096,-0.83677 -0.54144,-1.82122 -0.54144,-2.95333 0,-0.98444 0.27072,-1.92786 0.81216,-2.83027 0.54145,-0.91881 1.41104,-1.73098 2.60877,-2.43649 1.21415,-0.70552 2.79746,-1.27978 4.74994,-1.72277 1.95247,-0.45941 4.33974,-0.72193 7.16181,-0.78756 v -1.94427 c 0,-1.93607 -0.41839,-3.39632 -1.25516,-4.38077 -0.82037,-1.00085 -2.04272,-1.50127 -3.66705,-1.50127 -1.06648,0 -1.96888,0.13946 -2.70721,0.41839 -0.72193,0.26251 -1.35361,0.56605 -1.89506,0.91061 -0.52503,0.32815 -0.98444,0.63168 -1.37821,0.9106 -0.37737,0.26252 -0.75474,0.39378 -1.13211,0.39378 -0.29533,0 -0.55785,-0.0738 -0.78756,-0.2215 -0.21329,-0.16407 -0.38557,-0.36096 -0.51683,-0.59066 l -0.78755,-1.40283 c 1.37822,-1.329 2.86309,-2.32165 4.4546,-2.97794 1.59151,-0.65629 3.3553,-0.98444 5.29137,-0.98444 1.39463,0 2.63338,0.2297 3.71627,0.68911 1.08289,0.45941 1.9935,1.09929 2.73183,1.91966 0.73833,0.82037 1.29618,1.81301 1.67355,2.97794 0.37737,1.16492 0.56605,2.44469 0.56605,3.83932 z m -11.3703,-2.6826 c 0.77115,0 1.47666,-0.0738 2.11655,-0.2215 0.63989,-0.16407 1.23876,-0.38557 1.79661,-0.6645 0.57425,-0.29533 1.1157,-0.64809 1.62433,-1.05828 0.52503,-0.41018 1.03366,-0.87779 1.52588,-1.40283 v -5.19293 c -2.01811,0.0657 -3.73268,0.22974 -5.14371,0.49222 -1.41103,0.24611 -2.55955,0.57426 -3.44555,0.98444 -0.88599,0.41019 -1.53408,0.89421 -1.94427,1.45206 -0.39377,0.55785 -0.59066,1.18133 -0.59066,1.87044 0,0.65629 0.10665,1.22235 0.31994,1.69816 0.21329,0.47581 0.50042,0.86959 0.86139,1.18133 0.36096,0.29533 0.78755,0.51683 1.27977,0.6645 0.49222,0.13126 1.02546,0.19689 1.59972,0.19689 z m 22.88828,-22.24839 v 24.93099 h -4.38077 v -24.93099 z m 7.72788,24.93099 v -24.93099 h 2.60878 c 0.62348,0 1.01726,0.30354 1.18133,0.91061 l 0.34455,2.70721 c 1.08289,-1.19774 2.28883,-2.16577 3.61782,-2.9041 1.34541,-0.73833 2.8959,-1.1075 4.65149,-1.1075 1.36181,0 2.55955,0.2297 3.59322,0.68911 1.05007,0.443 1.91966,1.08289 2.60877,1.91966 0.70551,0.82037 1.23875,1.81301 1.59972,2.97794 0.36096,1.16492 0.54144,2.4529 0.54144,3.86393 v 15.87413 h -4.38077 v -15.87413 c 0,-1.88685 -0.43479,-3.3471 -1.30438,-4.38076 -0.85319,-1.05007 -2.16578,-1.57511 -3.93777,-1.57511 -1.29618,0 -2.51033,0.31174 -3.64244,0.93522 -1.1157,0.62348 -2.14936,1.46846 -3.10099,2.53494 v 18.35984 z m 41.64189,-20.82095 c -0.19689,0.36096 -0.50042,0.54144 -0.91061,0.54144 -0.24611,0 -0.52503,-0.0902 -0.83677,-0.27072 -0.31174,-0.18048 -0.69731,-0.37737 -1.15672,-0.59066 -0.443,-0.22971 -0.97624,-0.4348 -1.59972,-0.61528 -0.62348,-0.19689 -1.36181,-0.29533 -2.215,-0.29533 -0.73833,0 -1.40282,0.0984 -1.99349,0.29533 -0.59067,0.18048 -1.0993,0.43479 -1.52589,0.76294 -0.41018,0.32815 -0.73012,0.71373 -0.95983,1.15672 -0.21329,0.42659 -0.31994,0.8942 -0.31994,1.40283 0,0.63989 0.18048,1.17313 0.54144,1.59972 0.37737,0.42659 0.8696,0.79576 1.47667,1.1075 0.60707,0.31174 1.29617,0.59066 2.06732,0.83677 0.77115,0.22971 1.5587,0.48402 2.36266,0.76295 0.82037,0.26251 1.61613,0.55784 2.38728,0.88599 0.77115,0.32815 1.46025,0.73834 2.06732,1.23056 0.60707,0.49222 1.09109,1.09929 1.45206,1.82121 0.37737,0.70552 0.56605,1.5587 0.56605,2.55955 0,1.14852 -0.20509,2.215 -0.61528,3.19944 -0.41018,0.96803 -1.01725,1.81301 -1.82121,2.53494 -0.80397,0.70551 -1.78841,1.26336 -2.95333,1.67355 -1.16492,0.41019 -2.51032,0.61528 -4.03621,0.61528 -1.73918,0 -3.31429,-0.27893 -4.72532,-0.83678 -1.41103,-0.57426 -2.60877,-1.30439 -3.59322,-2.19038 l 1.03367,-1.67355 c 0.13126,-0.2133 0.28713,-0.37738 0.46761,-0.49223 0.18048,-0.11485 0.41839,-0.17227 0.71372,-0.17227 0.29533,0 0.60707,0.11485 0.93522,0.34455 0.32815,0.22971 0.72192,0.48402 1.18133,0.76294 0.47581,0.27893 1.04187,0.53324 1.69816,0.76295 0.6727,0.2297 1.50948,0.34455 2.51033,0.34455 0.85318,0 1.59971,-0.10665 2.2396,-0.31994 0.63989,-0.22971 1.17313,-0.53324 1.59972,-0.91061 0.42659,-0.37737 0.73833,-0.81216 0.93522,-1.30439 0.21329,-0.49222 0.31994,-1.01725 0.31994,-1.5751 0,-0.68911 -0.18868,-1.25517 -0.56605,-1.69817 -0.36096,-0.45941 -0.84498,-0.84498 -1.45205,-1.15672 -0.60707,-0.32815 -1.30439,-0.60707 -2.09194,-0.83677 -0.77115,-0.24611 -1.5669,-0.50043 -2.38727,-0.76294 -0.80396,-0.26252 -1.59972,-0.55785 -2.38727,-0.886 -0.77115,-0.34455 -1.46026,-0.77115 -2.06733,-1.27978 -0.60707,-0.50863 -1.0993,-1.13211 -1.47667,-1.87044 -0.36096,-0.75473 -0.54144,-1.66534 -0.54144,-2.73182 0,-0.95163 0.19689,-1.86224 0.59067,-2.73183 0.39377,-0.886 0.96803,-1.65715 1.72277,-2.31344 0.75474,-0.6727 1.68176,-1.20594 2.78105,-1.59972 1.09929,-0.39377 2.35446,-0.59066 3.76549,-0.59066 1.64073,0 3.10919,0.26252 4.40538,0.78755 1.31259,0.50863 2.44469,1.21415 3.39632,2.11655 z"
         id="text2-2-66-8"
         style="font-size:49.2221px;font-family:Lato;-inkscape-font-specification:Lato;text-align:center;text-anchor:middle;fill:#444444;stroke-width:4.06302"
         aria-label="brains"
         sodipodi:nodetypes="cccccssccscccscccscsccccsssccssccsscccscccscscccccsscccccscscsccccscscccscccsssssscsccccccscssccscccccccscccsccssccscscccccssccscccscsccsscsccsscccsssccscscscccccscsccssccc" /><path
         d="m 44.891156,438.24229 v 27.6136 c 0,0.85318 -0.123055,1.64073 -0.369166,2.36266 -0.246111,0.72193 -0.615276,1.34541 -1.107497,1.87044 -0.475814,0.54144 -1.082887,0.95983 -1.821218,1.25516 -0.721924,0.31174 -1.575107,0.46761 -2.559549,0.46761 -0.475813,0 -0.902405,-0.041 -1.279775,-0.12305 -0.377369,-0.082 -0.746535,-0.2133 -1.107497,-0.39378 l 0.123055,-1.18133 c 0.01641,-0.19689 0.131258,-0.29533 0.344555,-0.29533 0.131259,0 0.319944,0.0328 0.566054,0.0984 0.229703,0.0656 0.549647,0.0984 0.959831,0.0984 1.328997,0 2.313439,-0.36096 2.953326,-1.08289 0.639887,-0.72193 0.959831,-1.74739 0.959831,-3.07638 v -27.6136 z m 17.793805,-0.39378 c 1.378219,0 2.64979,0.23791 3.814713,0.71372 1.18133,0.47582 2.198587,1.17313 3.05177,2.09194 0.869591,0.90241 1.542293,2.01811 2.018106,3.34711 0.492221,1.32899 0.738332,2.85488 0.738332,4.57765 0,0.36097 -0.05743,0.60708 -0.172278,0.73833 -0.09844,0.13126 -0.262518,0.19689 -0.492221,0.19689 H 53.948038 v 0.46761 c 0,1.83763 0.213296,3.45375 0.639888,4.84838 0.426591,1.39463 1.033664,2.56775 1.821217,3.51938 0.787554,0.93522 1.739181,1.64074 2.854882,2.11655 1.115701,0.47581 2.362661,0.71372 3.74088,0.71372 1.230552,0 2.297031,-0.13126 3.199436,-0.39378 0.902405,-0.27893 1.657144,-0.58246 2.264217,-0.91061 0.62348,-0.34455 1.115701,-0.64809 1.476663,-0.9106 0.360962,-0.27893 0.62348,-0.41839 0.787553,-0.41839 0.213296,0 0.37737,0.082 0.492221,0.24611 l 0.639888,0.78755 c -0.393777,0.49222 -0.918813,0.95163 -1.575108,1.37822 -0.639887,0.42659 -1.361811,0.79576 -2.165772,1.1075 -0.787553,0.29533 -1.640736,0.53324 -2.559549,0.71372 -0.902405,0.18048 -1.813014,0.27072 -2.731827,0.27072 -1.673551,0 -3.199436,-0.28713 -4.577655,-0.86139 -1.378219,-0.59067 -2.559549,-1.44385 -3.543991,-2.55955 -0.984442,-1.1157 -1.747385,-2.47751 -2.288828,-4.08543 -0.525035,-1.62433 -0.787553,-3.47836 -0.787553,-5.5621 0,-1.75559 0.24611,-3.37171 0.738331,-4.84837 0.508629,-1.49307 1.230553,-2.77285 2.165773,-3.83933 0.951627,-1.08289 2.108347,-1.92787 3.470158,-2.53494 1.378219,-0.60707 2.936918,-0.91061 4.676099,-0.91061 z m 0.02461,1.74739 c -1.263367,0 -2.395476,0.19689 -3.396325,0.59066 -1.000849,0.39378 -1.87044,0.95984 -2.608771,1.69817 -0.721924,0.73833 -1.312589,1.62432 -1.771996,2.65799 -0.442999,1.03367 -0.738331,2.19039 -0.885997,3.47016 H 70.19133 c 0,-1.31259 -0.180481,-2.48572 -0.541443,-3.51938 -0.360962,-1.05007 -0.86959,-1.93607 -1.525885,-2.658 -0.656295,-0.72192 -1.443848,-1.27157 -2.362661,-1.64894 -0.918812,-0.39377 -1.936069,-0.59066 -3.05177,-0.59066 z m 22.592927,23.52816 c -1.657144,0 -2.953326,-0.45941 -3.888546,-1.37822 -0.918812,-0.91881 -1.378218,-2.33805 -1.378218,-4.25771 v -16.73551 h -3.51938 c -0.180481,0 -0.328148,-0.0492 -0.442999,-0.14767 -0.114852,-0.0984 -0.172278,-0.2379 -0.172278,-0.41839 v -0.9106 l 4.183879,-0.29534 0.590665,-8.76153 c 0.01641,-0.14767 0.07383,-0.27893 0.172277,-0.39378 0.114852,-0.11485 0.262518,-0.17228 0.442999,-0.17228 h 1.107497 v 9.3522 h 7.703259 v 1.74739 h -7.703259 v 16.61246 c 0,0.6727 0.08204,1.25516 0.246111,1.74738 0.180481,0.47581 0.418387,0.86959 0.71372,1.18133 0.31174,0.31174 0.672702,0.54144 1.082887,0.68911 0.410184,0.14767 0.853183,0.2215 1.328996,0.2215 0.590665,0 1.099294,-0.082 1.525885,-0.24611 0.426592,-0.18048 0.795758,-0.36916 1.107498,-0.56605 0.311739,-0.2133 0.566053,-0.40199 0.762942,-0.56606 0.196889,-0.18048 0.352759,-0.27072 0.46761,-0.27072 0.131259,0 0.262518,0.082 0.393777,0.24611 l 0.639887,1.03366 c -0.62348,0.68911 -1.419237,1.24697 -2.387272,1.67356 -0.951627,0.41018 -1.944273,0.61527 -2.977937,0.61527 z"
         id="text3-0-9"
         style="font-weight:300;font-size:49.2221px;font-family:Lato;-inkscape-font-specification:'Lato Light';text-align:center;text-anchor:middle;fill:#444444;stroke-width:4.06302"
         aria-label="jet"
         sodipodi:nodetypes="cssccssccscsssccscccscscsscsscccscccccscscscccssscccccscsscscsssccccscccccsccsscccscccs" /><path
         id="rect6-6-5-0"
         style="font-variation-settings:normal;vector-effect:none;fill:url(#linearGradient5);fill-opacity:1;stroke:none;stroke-width:0.264583;stroke-linecap:butt;stroke-linejoin:miter;stroke-miterlimit:4;stroke-dasharray:none;stroke-dashoffset:0;stroke-opacity:1;-inkscape-stroke:none;stop-color:#000000"
         d="m -17.27268,468.27491 11.8101297,11.80962 H 16.94227 l 11.80962,-11.80962 z" /><rect
         style="fill:#444444;fill-opacity:1;stroke-width:0.139151;-inkscape-stroke:none"
         id="rect7"
         width="2.381907"
         height="2.381907"
         x="42.563477"
         y="428.66013" /><rect
         style="fill:#444444;fill-opacity:1;stroke-width:0.276867;-inkscape-stroke:none"
         id="rect8"
         width="4.386662"
         height="4.386662"
         x="167.81602"
         y="429.01611" /></g></g></svg>
