<?xml version="1.0" encoding="UTF-8" standalone="no"?>
<!-- Created with Inkscape (http://www.inkscape.org/) -->

<svg
   width="238.43433mm"
   height="56.019321mm"
   viewBox="0 0 238.43433 56.019321"
   version="1.1"
   id="svg1"
   xml:space="preserve"
   inkscape:version="1.4 (86a8ad7, 2024-10-11)"
   sodipodi:docname="jetbrains-neovim.svg"
   xmlns:inkscape="http://www.inkscape.org/namespaces/inkscape"
   xmlns:sodipodi="http://sodipodi.sourceforge.net/DTD/sodipodi-0.dtd"
   xmlns:xlink="http://www.w3.org/1999/xlink"
   xmlns="http://www.w3.org/2000/svg"
   xmlns:svg="http://www.w3.org/2000/svg"><sodipodi:namedview
     id="namedview1"
     pagecolor="#ffffff"
     bordercolor="#000000"
     borderopacity="0.25"
     inkscape:showpageshadow="2"
     inkscape:pageopacity="0.0"
     inkscape:pagecheckerboard="0"
     inkscape:deskcolor="#d1d1d1"
     inkscape:document-units="mm"
     inkscape:zoom="1.5638009"
     inkscape:cx="497.18605"
     inkscape:cy="117.3423"
     inkscape:window-width="2256"
     inkscape:window-height="1433"
     inkscape:window-x="-8"
     inkscape:window-y="-8"
     inkscape:window-maximized="1"
     inkscape:current-layer="layer1"
     showguides="false" /><defs
     id="defs1"><linearGradient
       id="linearGradient25"
       inkscape:collect="always"><stop
         style="stop-color:#16b0ed;stop-opacity:0.80000001;"
         offset="0"
         id="stop25" /><stop
         style="stop-color:#0f59b2;stop-opacity:0.83529413;"
         offset="1"
         id="stop26" /></linearGradient><linearGradient
       id="linearGradient23"
       inkscape:collect="always"><stop
         style="stop-color:#88c649;stop-opacity:0.80000001;"
         offset="0"
         id="stop23" /><stop
         style="stop-color:#439240;stop-opacity:0.8392157;"
         offset="1"
         id="stop24" /></linearGradient><linearGradient
       id="linearGradient21"
       inkscape:collect="always"><stop
         style="stop-color:#7db643;stop-opacity:1;"
         offset="0"
         id="stop21" /><stop
         style="stop-color:#367533;stop-opacity:1;"
         offset="1"
         id="stop22" /></linearGradient><linearGradient
       x1="49.021549"
       y1="-0.079835393"
       x2="49.021549"
       y2="97.845657"
       id="linearGradient-1"
       gradientTransform="scale(0.46153975,2.1666606)"
       gradientUnits="userSpaceOnUse"><stop
         stop-color="#16B0ED"
         stop-opacity="0.800235524"
         offset="0%"
         id="stop1" /><stop
         stop-color="#0F59B2"
         stop-opacity="0.83700023"
         offset="100%"
         id="stop2" /></linearGradient><linearGradient
       x1="326.17365"
       y1="-0.069164939"
       x2="326.17365"
       y2="98.851547"
       id="linearGradient-2"
       gradientTransform="scale(0.46628455,2.1446132)"
       gradientUnits="userSpaceOnUse"><stop
         stop-color="#7DB643"
         offset="0%"
         id="stop3" /><stop
         stop-color="#367533"
         offset="100%"
         id="stop4" /></linearGradient><linearGradient
       x1="103.88479"
       y1="-0.11508822"
       x2="103.88479"
       y2="178.55785"
       id="linearGradient-3"
       gradientTransform="scale(0.84203823,1.1875945)"
       gradientUnits="userSpaceOnUse"><stop
         stop-color="#88C649"
         stop-opacity="0.8"
         offset="0%"
         id="stop5" /><stop
         stop-color="#439240"
         stop-opacity="0.84"
         offset="100%"
         id="stop6" /></linearGradient><linearGradient
       x1="326.17365"
       y1="-0.069164939"
       x2="326.17365"
       y2="98.851547"
       id="linearGradient-2-5"
       gradientTransform="scale(0.46628455,2.1446132)"
       gradientUnits="userSpaceOnUse"><stop
         stop-color="#7DB643"
         offset="0%"
         id="stop3-6" /><stop
         stop-color="#367533"
         offset="100%"
         id="stop4-9" /></linearGradient><linearGradient
       x1="326.17365"
       y1="-0.069164939"
       x2="326.17365"
       y2="98.851547"
       id="linearGradient-2-5-2"
       gradientTransform="scale(0.46628455,2.1446132)"
       gradientUnits="userSpaceOnUse"><stop
         stop-color="#7DB643"
         offset="0%"
         id="stop3-6-6" /><stop
         stop-color="#367533"
         offset="100%"
         id="stop4-9-4" /></linearGradient><linearGradient
       inkscape:collect="always"
       xlink:href="#linearGradient21"
       id="linearGradient1"
       gradientUnits="userSpaceOnUse"
       gradientTransform="matrix(0.46628455,0,0,2.1446132,-0.3710603,-209.21903)"
       x1="54.388588"
       y1="153.72807"
       x2="54.388588"
       y2="179.95435" /><linearGradient
       inkscape:collect="always"
       xlink:href="#linearGradient25"
       id="linearGradient2"
       gradientUnits="userSpaceOnUse"
       gradientTransform="matrix(0.46153975,0,0,2.1666606,-0.3710603,-209.21903)"
       x1="-21.217438"
       y1="168.56223"
       x2="-21.217438"
       y2="183.45412" /><linearGradient
       inkscape:collect="always"
       xlink:href="#linearGradient23"
       id="linearGradient5"
       gradientUnits="userSpaceOnUse"
       gradientTransform="matrix(0.84203823,0,0,1.1875945,-0.3710603,-209.21903)"
       x1="-17.742819"
       y1="320.42413"
       x2="36.82753"
       y2="320.42413" /></defs><g
     inkscape:label="Layer 1"
     inkscape:groupmode="layer"
     id="layer1"
     transform="translate(15.20478,-120.49034)"><rect
       style="fill:#444444;fill-opacity:1;stroke-width:0.160301;-inkscape-stroke:none"
       id="rect1"
       width="6.1279998"
       height="6.1279998"
       x="168.05183"
       y="125.23332" /><path
       style="-inkscape-font-specification:'Lato Bold';fill:#444444;stroke-width:0.759713"
       d="m 98.157604,160.49251 v -36.12585 h 6.004766 v 14.24613 c 0.98864,-1.05347 2.10694,-1.88814 3.35489,-2.50402 1.24795,-0.63208 2.7066,-0.94812 4.37595,-0.94812 1.3614,0 2.60125,0.28363 3.71955,0.85088 1.1345,0.55105 2.10693,1.36141 2.91729,2.43108 0.82657,1.06967 1.45866,2.39056 1.89625,3.96266 0.4538,1.5721 0.6807,3.3792 0.6807,5.42131 0,1.86383 -0.25121,3.58989 -0.75364,5.1782 -0.50242,1.58831 -1.22364,2.96592 -2.16366,4.13284 -0.92381,1.16692 -2.05021,2.08263 -3.3792,2.74712 -1.31278,0.64829 -2.78763,0.97243 -4.42456,0.97243 -0.76174,0 -1.45865,-0.081 -2.09073,-0.24311 -0.63208,-0.14587 -1.20744,-0.35656 -1.72607,-0.63208 -0.51863,-0.27552 -1.00484,-0.60777 -1.45865,-0.99674 -0.43759,-0.40518 -0.85898,-0.85088 -1.26416,-1.3371 l -0.26742,1.67745 c -0.0972,0.42139 -0.26741,0.72122 -0.51052,0.8995 -0.22691,0.17828 -0.54295,0.26742 -0.94813,0.26742 z m 11.669186,-20.66418 c -1.24795,0 -2.31763,0.26742 -3.20903,0.80225 -0.87519,0.51863 -1.69365,1.25606 -2.45539,2.21229 v 11.18296 c 0.68071,0.84278 1.41813,1.43434 2.21228,1.77469 0.81036,0.32415 1.68555,0.48622 2.62557,0.48622 0.90761,0 1.72607,-0.17018 2.45539,-0.51053 0.72933,-0.34035 1.3452,-0.85898 1.84762,-1.55589 0.51863,-0.69691 0.91571,-1.5721 1.19123,-2.62557 0.27553,-1.06967 0.41329,-2.32573 0.41329,-3.76817 0,-1.45865 -0.12156,-2.69039 -0.36467,-3.69524 -0.2269,-1.02105 -0.55915,-1.84762 -0.99674,-2.4797 -0.43759,-0.63208 -0.97243,-1.09399 -1.60451,-1.38572 -0.61587,-0.29173 -1.32089,-0.43759 -2.11504,-0.43759 z m 15.08583,20.66418 v -24.94288 h 3.52506 c 0.61587,0 1.04536,0.11345 1.28847,0.34035 0.24311,0.2269 0.40519,0.61587 0.48622,1.16692 l 0.36466,3.01454 c 0.8914,-1.53969 1.93677,-2.75523 3.1361,-3.64662 1.19933,-0.8914 2.54452,-1.3371 4.03559,-1.3371 1.23175,0 2.2528,0.28363 3.06316,0.85088 l -0.77795,4.4975 c -0.0486,0.29173 -0.15395,0.50242 -0.31604,0.63208 -0.16207,0.11345 -0.38087,0.17017 -0.65639,0.17017 -0.24311,0 -0.57535,-0.0567 -0.99674,-0.17017 -0.42139,-0.11345 -0.98054,-0.17018 -1.67745,-0.17018 -1.24795,0 -2.31763,0.34846 -3.20902,1.04537 -0.8914,0.6807 -1.64504,1.68555 -2.26091,3.01454 v 15.5346 z m 37.81648,0 h -2.69849 c -0.56725,0 -1.01295,-0.081 -1.3371,-0.24311 -0.32414,-0.17828 -0.56725,-0.52673 -0.72932,-1.04536 l -0.53484,-1.77469 c -0.63208,0.56725 -1.25606,1.06968 -1.87193,1.50727 -0.59967,0.42139 -1.22364,0.77794 -1.87193,1.06967 -0.64829,0.29173 -1.3371,0.51053 -2.06642,0.65639 -0.72933,0.14587 -1.53969,0.2188 -2.43108,0.2188 -1.05347,0 -2.0259,-0.13776 -2.9173,-0.41328 -0.89139,-0.29173 -1.66123,-0.72123 -2.30952,-1.28848 -0.63209,-0.56725 -1.12641,-1.27226 -1.48296,-2.11503 -0.35656,-0.84278 -0.53484,-1.82332 -0.53484,-2.94161 0,-0.94002 0.24311,-1.86383 0.72932,-2.77143 0.50243,-0.92381 1.329,-1.75038 2.47971,-2.4797 1.15071,-0.74553 2.68229,-1.36141 4.59474,-1.84763 1.91245,-0.48621 4.2868,-0.76173 7.12306,-0.82656 v -1.45865 c 0,-1.66934 -0.35656,-2.90109 -1.06967,-3.69524 -0.69691,-0.81036 -1.71797,-1.21554 -3.06316,-1.21554 -0.97243,0 -1.7828,0.11345 -2.43109,0.34035 -0.64829,0.2269 -1.21554,0.48621 -1.70175,0.77794 -0.47001,0.27553 -0.9076,0.52674 -1.31278,0.75364 -0.40518,0.2269 -0.85088,0.34035 -1.3371,0.34035 -0.40518,0 -0.75363,-0.10535 -1.04536,-0.31604 -0.29173,-0.21069 -0.52674,-0.47001 -0.70502,-0.77795 l -1.09398,-1.92055 c 2.86867,-2.62557 6.32891,-3.93835 10.38071,-3.93835 1.45865,0 2.75522,0.24311 3.88973,0.72933 1.15071,0.47001 2.12314,1.1345 2.91729,1.99348 0.79415,0.84277 1.39382,1.85572 1.799,3.03885 0.42139,1.18313 0.63208,2.4797 0.63208,3.88973 z m -11.66918,-3.74387 c 0.61587,0 1.18313,-0.0567 1.70176,-0.17017 0.51863,-0.11345 1.00484,-0.28363 1.45864,-0.51053 0.47001,-0.2269 0.91571,-0.50242 1.3371,-0.82656 0.43759,-0.34035 0.87519,-0.73743 1.31278,-1.19123 v -4.20577 c -1.75038,0.081 -3.21713,0.235 -4.40025,0.4619 -1.16692,0.21069 -2.10694,0.48622 -2.82006,0.82657 -0.71311,0.34035 -1.22364,0.73743 -1.53158,1.19123 -0.29173,0.4538 -0.43759,0.94812 -0.43759,1.48296 0,1.05347 0.30794,1.8071 0.92381,2.2609 0.63208,0.4538 1.45054,0.6807 2.45539,0.6807 z m 23.08412,-21.19901 v 24.94288 h -6.00477 v -24.94288 z m 5.89635,24.94288 v -24.94288 h 3.67093 c 0.77795,0 1.28847,0.36466 1.53158,1.09398 l 0.41329,1.96918 c 0.50242,-0.51863 1.02915,-0.98864 1.5802,-1.41003 0.56725,-0.42139 1.15882,-0.78605 1.77469,-1.09399 0.63208,-0.30793 1.30468,-0.54294 2.01779,-0.70501 0.71312,-0.16207 1.49107,-0.24311 2.33384,-0.24311 1.36141,0 2.56884,0.23501 3.62231,0.70502 1.05347,0.4538 1.92865,1.10209 2.62556,1.94486 0.71312,0.82657 1.24796,1.82331 1.60452,2.99023 0.37277,1.15071 0.55915,2.42298 0.55915,3.8168 v 15.87495 h -6.00477 v -15.87495 c 0,-1.52348 -0.35656,-2.6985 -1.06968,-3.52507 -0.69691,-0.84277 -1.75037,-1.26416 -3.1604,-1.26416 -1.03726,0 -2.00969,0.235 -2.9173,0.70501 -0.9076,0.47001 -1.76658,1.11019 -2.57694,1.92055 v 18.03862 z m 41.56033,-20.08072 c -0.16207,0.25931 -0.33225,0.4457 -0.51053,0.55915 -0.17828,0.0972 -0.40518,0.14586 -0.6807,0.14586 -0.29173,0 -0.60777,-0.081 -0.94812,-0.24311 -0.32415,-0.16207 -0.70502,-0.34035 -1.14261,-0.53484 -0.43759,-0.21069 -0.94002,-0.39707 -1.50727,-0.55914 -0.55105,-0.16207 -1.20744,-0.24311 -1.96917,-0.24311 -1.18313,0 -2.11504,0.25121 -2.79575,0.75363 -0.6807,0.50243 -1.02105,1.15882 -1.02105,1.96918 0,0.53483 0.17018,0.98863 0.51053,1.3614 0.35655,0.35656 0.81846,0.6726 1.38571,0.94812 0.58346,0.27553 1.23985,0.52674 1.96918,0.75364 0.72932,0.21069 1.47485,0.4457 2.23659,0.70501 0.76174,0.25931 1.50727,0.55915 2.2366,0.8995 0.72932,0.32415 1.37761,0.74553 1.94486,1.26416 0.58346,0.50243 1.04536,1.1102 1.38571,1.82331 0.35656,0.71312 0.53484,1.5721 0.53484,2.57695 0,1.19933 -0.2188,2.30953 -0.65639,3.33058 -0.43759,1.00485 -1.07778,1.88003 -1.92055,2.62556 -0.84277,0.72933 -1.88814,1.30468 -3.1361,1.72607 -1.23175,0.40518 -2.64988,0.60777 -4.25439,0.60777 -0.85898,0 -1.70175,-0.081 -2.52832,-0.24311 -0.81036,-0.14586 -1.59641,-0.35655 -2.35815,-0.63208 -0.74553,-0.27552 -1.44244,-0.59966 -2.09073,-0.97243 -0.63208,-0.37277 -1.19123,-0.77795 -1.67744,-1.21554 l 1.38571,-2.28522 c 0.17828,-0.27552 0.38898,-0.48621 0.63209,-0.63208 0.24311,-0.14586 0.55104,-0.21879 0.92381,-0.21879 0.37276,0 0.72121,0.10535 1.04536,0.31604 0.34035,0.21069 0.72933,0.43759 1.16692,0.6807 0.43759,0.24311 0.94812,0.47001 1.53158,0.6807 0.59967,0.21069 1.3533,0.31604 2.2609,0.31604 0.71312,0 1.32089,-0.081 1.82331,-0.24311 0.51863,-0.17827 0.94002,-0.40517 1.26417,-0.6807 0.34035,-0.27552 0.58345,-0.59156 0.72932,-0.94812 0.16207,-0.37277 0.24311,-0.75364 0.24311,-1.14261 0,-0.58346 -0.17828,-1.06157 -0.53484,-1.43433 -0.34035,-0.37277 -0.80226,-0.69691 -1.38572,-0.97244 -0.56725,-0.27552 -1.22364,-0.51863 -1.96917,-0.72932 -0.72933,-0.2269 -1.48296,-0.47001 -2.26091,-0.72932 -0.76173,-0.25932 -1.51537,-0.55915 -2.2609,-0.8995 -0.72933,-0.35656 -1.38572,-0.80226 -1.96917,-1.3371 -0.56725,-0.53483 -1.02916,-1.19122 -1.38572,-1.96917 -0.34035,-0.77795 -0.51053,-1.71797 -0.51053,-2.82006 0,-1.02105 0.20259,-1.99348 0.60777,-2.91729 0.40518,-0.92381 0.99674,-1.72607 1.77469,-2.40677 0.79415,-0.69691 1.77469,-1.24796 2.94161,-1.65314 1.18313,-0.42139 2.54453,-0.63208 4.08421,-0.63208 1.71797,0 3.28196,0.28363 4.69199,0.85088 1.41003,0.56725 2.58505,1.31279 3.52506,2.2366 z"
       id="text1"
       aria-label="brains"
       sodipodi:nodetypes="cccccscccssccscsccccscsccccssccscscsccssccsscccssscccccsccccsssccssccscscsscsssccscccscsscccccscscscccccccsccccsscccsccscsscccccscccssscccscccscccscccccsscscscccscccccccssccsscc" /><path
       id="rect6-9-8-9-6-6"
       style="font-variation-settings:normal;vector-effect:none;fill:url(#linearGradient1);fill-opacity:1;stroke:none;stroke-width:0.264583;stroke-linecap:butt;stroke-linejoin:miter;stroke-miterlimit:4;stroke-dasharray:none;stroke-dashoffset:0;stroke-opacity:1;-inkscape-stroke:none;stop-color:#000000"
       d="m 19.31509,120.49034 v 55.86687 l 11.81012,-11.81013 v -32.24609 z" /><path
       id="rect6-9-3-9-5"
       style="font-variation-settings:normal;vector-effect:none;fill:url(#linearGradient2);fill-opacity:1;stroke:none;stroke-width:0.264583;stroke-linecap:butt;stroke-linejoin:miter;stroke-miterlimit:4;stroke-dasharray:none;stroke-dashoffset:0;stroke-opacity:1;-inkscape-stroke:none;stop-color:#000000"
       d="m -15.20478,156.56979 v 7.97781 l 11.8101397,11.80961 v -19.78742 z" /><path
       d="m 47.111516,134.66742 v 27.6136 c 0,0.85318 -0.123055,1.64073 -0.369166,2.36266 -0.246111,0.72193 -0.615276,1.34541 -1.107497,1.87044 -0.475814,0.54144 -1.082887,0.95983 -1.821218,1.25516 -0.721924,0.31174 -1.575107,0.46761 -2.559549,0.46761 -0.475813,0 -0.902405,-0.041 -1.279775,-0.12305 -0.377369,-0.082 -0.746535,-0.2133 -1.107497,-0.39378 l 0.123055,-1.18133 c 0.01641,-0.19689 0.131258,-0.29533 0.344555,-0.29533 0.131259,0 0.319944,0.0328 0.566054,0.0984 0.229703,0.0656 0.549647,0.0984 0.959831,0.0984 1.328997,0 2.313439,-0.36096 2.953326,-1.08289 0.639887,-0.72193 0.959831,-1.74739 0.959831,-3.07638 v -27.6136 z m 17.793805,-0.39378 c 1.378219,0 2.64979,0.23791 3.814713,0.71372 1.18133,0.47582 2.198587,1.17313 3.05177,2.09194 0.869591,0.90241 1.542293,2.01811 2.018106,3.34711 0.492221,1.32899 0.738332,2.85488 0.738332,4.57765 0,0.36097 -0.05743,0.60708 -0.172278,0.73833 -0.09844,0.13126 -0.262518,0.19689 -0.492221,0.19689 H 56.168398 v 0.46761 c 0,1.83763 0.213296,3.45375 0.639888,4.84838 0.426591,1.39463 1.033664,2.56775 1.821217,3.51938 0.787554,0.93522 1.739181,1.64074 2.854882,2.11655 1.115701,0.47581 2.362661,0.71372 3.74088,0.71372 1.230552,0 2.297031,-0.13126 3.199436,-0.39378 0.902405,-0.27893 1.657144,-0.58246 2.264217,-0.91061 0.62348,-0.34455 1.115701,-0.64809 1.476663,-0.9106 0.360962,-0.27893 0.62348,-0.41839 0.787553,-0.41839 0.213296,0 0.37737,0.082 0.492221,0.24611 l 0.639888,0.78755 c -0.393777,0.49222 -0.918813,0.95163 -1.575108,1.37822 -0.639887,0.42659 -1.361811,0.79576 -2.165772,1.1075 -0.787553,0.29533 -1.640736,0.53324 -2.559549,0.71372 -0.902405,0.18048 -1.813014,0.27072 -2.731827,0.27072 -1.673551,0 -3.199436,-0.28713 -4.577655,-0.86139 -1.378219,-0.59067 -2.559549,-1.44385 -3.543991,-2.55955 -0.984442,-1.1157 -1.747385,-2.47751 -2.288828,-4.08543 -0.525035,-1.62433 -0.787553,-3.47836 -0.787553,-5.5621 0,-1.75559 0.24611,-3.37171 0.738331,-4.84837 0.508629,-1.49307 1.230553,-2.77285 2.165773,-3.83933 0.951627,-1.08289 2.108347,-1.92787 3.470158,-2.53494 1.378219,-0.60707 2.936918,-0.91061 4.676099,-0.91061 z m 0.02461,1.74739 c -1.263367,0 -2.395476,0.19689 -3.396325,0.59066 -1.000849,0.39378 -1.87044,0.95984 -2.608771,1.69817 -0.721924,0.73833 -1.312589,1.62432 -1.771996,2.65799 -0.442999,1.03367 -0.738331,2.19039 -0.885997,3.47016 H 72.41169 c 0,-1.31259 -0.180481,-2.48572 -0.541443,-3.51938 -0.360962,-1.05007 -0.86959,-1.93607 -1.525885,-2.658 -0.656295,-0.72192 -1.443848,-1.27157 -2.362661,-1.64894 -0.918812,-0.39377 -1.936069,-0.59066 -3.05177,-0.59066 z m 22.592927,23.52816 c -1.657144,0 -2.953326,-0.45941 -3.888546,-1.37822 -0.918812,-0.91881 -1.378218,-2.33805 -1.378218,-4.25771 v -16.73551 h -3.51938 c -0.180481,0 -0.328148,-0.0492 -0.442999,-0.14767 -0.114852,-0.0984 -0.172278,-0.2379 -0.172278,-0.41839 v -0.9106 l 4.183879,-0.29534 0.590665,-8.76153 c 0.01641,-0.14767 0.07383,-0.27893 0.172277,-0.39378 0.114852,-0.11485 0.262518,-0.17228 0.442999,-0.17228 h 1.107497 v 9.3522 h 7.703259 v 1.74739 h -7.703259 v 16.61246 c 0,0.6727 0.08204,1.25516 0.246111,1.74738 0.180481,0.47581 0.418387,0.86959 0.71372,1.18133 0.31174,0.31174 0.672702,0.54144 1.082887,0.68911 0.410184,0.14767 0.853183,0.2215 1.328996,0.2215 0.590665,0 1.099294,-0.082 1.525885,-0.24611 0.426592,-0.18048 0.795758,-0.36916 1.107498,-0.56605 0.311739,-0.2133 0.566053,-0.40199 0.762942,-0.56606 0.196889,-0.18048 0.352759,-0.27072 0.46761,-0.27072 0.131259,0 0.262518,0.082 0.393777,0.24611 l 0.639887,1.03366 c -0.62348,0.68911 -1.419237,1.24697 -2.387272,1.67356 -0.951627,0.41018 -1.944273,0.61527 -2.977937,0.61527 z"
       id="text3-0-9"
       style="font-weight:300;font-size:49.2221px;font-family:Lato;-inkscape-font-specification:'Lato Light';text-align:center;text-anchor:middle;fill:#444444;fill-opacity:1;stroke-width:4.06302"
       aria-label="jet"
       sodipodi:nodetypes="cssccssccscsssccscccscscsscsscccscccccscscscccssscccccscsscscsssccccscccccsccsscccscccs" /><path
       id="rect6-6-5-0"
       style="font-variation-settings:normal;vector-effect:none;fill:url(#linearGradient5);fill-opacity:1;stroke:none;stroke-width:0.264583;stroke-linecap:butt;stroke-linejoin:miter;stroke-miterlimit:4;stroke-dasharray:none;stroke-dashoffset:0;stroke-opacity:1;-inkscape-stroke:none;stop-color:#000000"
       d="m -15.05232,164.70004 11.8101297,11.80962 H 19.16263 l 11.80962,-11.80962 z" /><rect
       style="fill:#444444;fill-opacity:1;stroke-width:0.139151;-inkscape-stroke:none"
       id="rect7"
       width="2.381907"
       height="2.381907"
       x="44.783836"
       y="125.08526" /></g></svg>
