<?xml version="1.0" encoding="UTF-8" standalone="no"?>
<svg
   xml:space="preserve"
   width="2725.3115"
   height="903.71997"
   style="clip-rule:evenodd;fill-rule:evenodd;stroke-linejoin:round;stroke-miterlimit:2"
   viewBox="663.38 37.57 2725.3114 903.72"
   version="1.1"
   id="svg19"
   sodipodi:docname="neovim_helix.svg"
   inkscape:version="1.1.2 (b8e25be833, 2022-02-05)"
   xmlns:inkscape="http://www.inkscape.org/namespaces/inkscape"
   xmlns:sodipodi="http://sodipodi.sourceforge.net/DTD/sodipodi-0.dtd"
   xmlns="http://www.w3.org/2000/svg"
   xmlns:svg="http://www.w3.org/2000/svg"><sodipodi:namedview
     id="namedview21"
     pagecolor="#ffffff"
     bordercolor="#666666"
     borderopacity="1.0"
     inkscape:pageshadow="2"
     inkscape:pageopacity="0.0"
     inkscape:pagecheckerboard="0"
     showgrid="false"
     inkscape:zoom="0.54470807"
     inkscape:cx="1304.3684"
     inkscape:cy="731.58454"
     inkscape:window-width="2560"
     inkscape:window-height="1571"
     inkscape:window-x="-9"
     inkscape:window-y="-9"
     inkscape:window-maximized="1"
     inkscape:current-layer="svg19"
     fit-margin-top="0"
     fit-margin-left="0"
     fit-margin-right="0"
     fit-margin-bottom="0" /><defs
     id="defs5"><path
       id="c"
       d="M 713.026,-304.325 H 4328.26 V 1560.429 H 713.026 Z" /><path
       id="b"
       d="M 972.073,151.159 H 3113.038 V 836.022 H 972.073 Z" /><path
       id="a"
       d="m 661.302,48.088 h 769.156 V 876.556 H 661.302 Z" /><path
       id="c-6"
       d="M 713.026,-304.325 H 4328.26 V 1560.429 H 713.026 Z" /><path
       id="b-3"
       d="M 972.073,151.159 H 3113.038 V 836.022 H 972.073 Z" /><path
       id="a-3"
       d="m 661.302,48.088 h 769.156 V 876.556 H 661.302 Z" /><path
       id="c-69"
       d="M 713.026,-304.325 H 4328.26 V 1560.429 H 713.026 Z" /><path
       id="b-5"
       d="M 972.073,151.159 H 3113.038 V 836.022 H 972.073 Z" /><path
       id="a-1"
       d="m 661.302,48.088 h 769.156 V 876.556 H 661.302 Z" /></defs><text
     xml:space="preserve"
     style="font-size:528.666px;line-height:1.25;font-family:'Droid Sans';-inkscape-font-specification:'Droid Sans';letter-spacing:3.5px;clip-rule:evenodd;fill:#2a292f;fill-opacity:1;fill-rule:evenodd;stroke-width:3.43779;stroke-linejoin:round;stroke-miterlimit:2;stroke-dasharray:none"
     x="1425.2145"
     y="731.20844"
     id="text3964-0"
     transform="scale(1.0009549,0.99904601)"><tspan
       sodipodi:role="line"
       id="tspan3962-4"
       x="1425.2145"
       y="731.20844"
       style="font-weight:bold;fill:#2a292f;fill-opacity:1;stroke-width:3.43779;stroke-miterlimit:2;stroke-dasharray:none">Neovim</tspan></text><path
     d="m 663.381,37.57 551.48,318.4 a 47.66,47.66 0 0 1 23.82,41.27 v 105.94 c 0,8.51 -2.27,16.7 -6.38,23.83 0,0 -437.8,-252.76 -545.3,-314.83 a 47.245,47.245 0 0 1 -23.62,-40.92 z"
     style="fill:#706bc8"
     id="path7" /><path
     d="m 1215.061,766.69 a 47.228,47.228 0 0 1 23.62,40.91 V 941.29 L 687.211,622.9 a 47.66,47.66 0 0 1 -23.83,-41.27 V 475.69 c 0,-8.52 2.27,-16.71 6.38,-23.83 0,0 437.8,252.76 545.3,314.83"
     style="fill:#55c5e4"
     id="path9" /><path
     d="m 716.443,578.506 a 35.033,35.033 0 0 0 -12.898,12.9 c -9.647,16.7 -4.036,38.3 12.495,48.13 h -0.006 l -28.825,-16.64 a 47.644,47.644 0 0 1 -23.829,-41.27 v -105.94 c 0,-17.03 9.083,-32.76 23.829,-41.27 l 498.417,-287.73 0.24,-0.14 a 34.962,34.962 0 0 0 12.65,-12.756 c 9.65,-16.708 4.04,-38.3 -12.49,-48.137 h 0.01 l 28.82,16.642 a 47.648,47.648 0 0 1 23.83,41.273 v 105.938 c 0,17.03 -9.08,32.76 -23.83,41.27 l -29.63,17.11 0.4,-0.26 z"
     style="fill:#84ddea"
     id="path11" /><path
     d="m 716.443,832.186 a 35.08,35.08 0 0 0 -12.898,12.89 c -9.647,16.71 -4.036,38.3 12.495,48.14 h -0.006 l -28.825,-16.64 a 47.656,47.656 0 0 1 -23.829,-41.27 v -105.94 c 0,-17.03 9.083,-32.76 23.829,-41.27 l 498.417,-287.73 0.24,-0.14 c 5.09,-2.99 9.5,-7.29 12.65,-12.76 9.65,-16.71 4.04,-38.3 -12.49,-48.14 h 0.01 l 28.82,16.65 a 47.636,47.636 0 0 1 23.83,41.27 v 105.94 c 0,17.02 -9.08,32.76 -23.83,41.27 l -29.63,17.1 0.4,-0.25 z"
     style="fill:#997bc8"
     id="path13" /></svg>
