<?xml version="1.0" encoding="UTF-8" standalone="no"?>
<!-- Generator: Adobe Illustrator 19.2.1, SVG Export Plug-In . SVG Version: 6.00 Build 0)  -->

<svg
   version="1.1"
   id="layer"
   x="0px"
   y="0px"
   viewBox="0 0 587.29791 131"
   xml:space="preserve"
   sodipodi:docname="nordvpn.svg"
   width="587.29791"
   height="131"
   inkscape:version="1.1.1 (1:1.1+202109281949+c3084ef5ed)"
   xmlns:inkscape="http://www.inkscape.org/namespaces/inkscape"
   xmlns:sodipodi="http://sodipodi.sourceforge.net/DTD/sodipodi-0.dtd"
   xmlns="http://www.w3.org/2000/svg"
   xmlns:svg="http://www.w3.org/2000/svg"><defs
   id="defs2136" /><sodipodi:namedview
   id="namedview2134"
   pagecolor="#ffffff"
   bordercolor="#666666"
   borderopacity="1.0"
   inkscape:pageshadow="2"
   inkscape:pageopacity="0.0"
   inkscape:pagecheckerboard="0"
   showgrid="false"
   fit-margin-top="0"
   fit-margin-left="0"
   fit-margin-right="0"
   fit-margin-bottom="0"
   inkscape:zoom="0.67484663"
   inkscape:cx="122.25"
   inkscape:cy="54.827273"
   inkscape:window-width="1892"
   inkscape:window-height="922"
   inkscape:window-x="1934"
   inkscape:window-y="46"
   inkscape:window-maximized="1"
   inkscape:current-layer="layer" />
<style
   type="text/css"
   id="style2129">
	.st0{fill:#373B42;}
	.st1{fill:#4687FF;}
</style>

<path
   id="mountain"
   class="st1"
   d="M 15.7,131 C 5.5,116.9 0,100 0,82.6 0,37 36.9,0 82.4,0 c 45.5,0 82.4,37 82.4,82.5 0,17.4 -5.5,34.4 -15.7,48.4 L 109.5,66.5 105.7,73 109.6,91 82.4,44.4 65.6,72.8 69.5,91 55.2,66.6 Z" />
<path
   id="path2219"
   style="fill:#373b42;fill-opacity:1;stroke-width:2.96481"
   d="m 321.06561,98.81455 a 1.0242469,1.0096864 0 0 0 0.29271,0.78302 1.0152704,1.00086 0 0 0 0.77639,0.29451 h 41.45382 a 0.99734751,0.98317732 0 0 0 0.77639,-0.29451 1.027219,1.0126285 0 0 0 0.29871,-0.78302 v -8.60149 a 1.027219,1.0126285 0 0 0 -1.07495,-1.07738 H 335.5401 A 0.98542894,0.97140885 0 0 1 334.76371,88.84116 1.0570905,1.0420497 0 0 1 334.465,88.06402 V 74.46424 a 1.0720112,1.0567903 0 0 1 0.29871,-0.78008 0.99437537,0.9802352 0 0 1 0.77639,-0.29451 h 18.64221 a 1.0003497,0.98614945 0 0 0 1.00633,-0.65646 1.0242469,1.0096864 0 0 0 0.0627,-0.4239 V 63.7078 a 1.0242469,1.0096864 0 0 0 -0.29271,-0.78008 1.0152704,1.00086 0 0 0 -0.77639,-0.29721 h -18.64221 a 0.98542894,0.97140885 0 0 1 -0.77639,-0.29452 1.0540883,1.0391076 0 0 1 -0.29871,-0.77713 V 50.00474 a 1.0690391,1.0538482 0 0 1 0.29871,-0.78008 0.99437537,0.9802352 0 0 1 0.77639,-0.29451 h 28.06959 a 0.99437537,0.9802352 0 0 0 0.77636,-0.30025 1.027219,1.0126285 0 0 0 0.29872,-0.78008 v -8.60148 a 1.0570905,1.0420497 0 0 0 -0.29572,-0.7948 1.0003497,0.98614945 0 0 0 -0.79431,-0.29451 h -41.44782 a 0.99734751,0.98317732 0 0 0 -0.78533,0.29151 1.027219,1.0126285 0 0 0 -0.29872,0.78302 v 59.58087 z m 96.09313,-60.33231 h -8.79123 a 0.99734751,0.98317732 0 0 0 -1.00629,0.65646 1.0033218,0.98909157 0 0 0 -0.0657,0.4239 V 76.30003 L 384.92368,38.48182 H 373.9766 a 1.3646618,1.3452678 0 0 0 -0.87195,0.35324 1.4154283,1.3953138 0 0 0 -0.44495,0.83307 v 59.14855 a 1.0331933,1.0185127 0 0 0 0.65099,1.01557 1.006324,0.99203369 0 0 0 0.42103,0.0649 h 8.79122 a 0.99140323,0.97729308 0 0 0 0.77339,-0.30025 1.027219,1.0126285 0 0 0 0.29241,-0.78008 V 56.36928 l 25.52826,43.32117 0.11919,0.21796 h 7.59967 a 0.98542894,0.97140885 0 0 0 0.77338,-0.30025 0.98242678,0.96846673 0 0 0 0.22696,-0.35618 0.99437537,0.9802352 0 0 0 0.0657,-0.42096 V 39.56238 a 0.89284233,0.88017321 0 0 0 -0.11918,-0.71827 0.83012721,0.81835874 0 0 0 -0.62412,-0.36206 z M 231.80719,86.53571 c 9.869,0 17.76738,-7.75968 17.76738,-17.2411 0,-9.47872 -7.9311,-17.20298 -17.76738,-17.20298 -9.83627,0 -17.76438,7.75669 -17.76438,17.2354 0,9.48173 7.92811,17.24411 17.76738,17.24411 v -0.0354 z m 0,14.04141 c -17.76438,0 -32.23719,-14.00598 -32.23719,-31.35756 0,-17.34708 14.47371,-31.35456 32.23719,-31.35456 17.76738,0 32.2402,14.00598 32.2402,31.35456 0,17.35008 -14.47672,31.35756 -32.2402,31.35756 z m 39.00406,-60.80575 v 59.15156 c -0.018,0.29031 0.0907,0.5741 0.29572,0.78302 0.20414,0.20325 0.48674,0.31054 0.77638,0.29451 h 11.46075 c 0.29001,0.018 0.57347,-0.0895 0.77639,-0.29451 0.20835,-0.20685 0.31712,-0.49193 0.29871,-0.78302 V 76.08279 h 12.30285 c 0,0 17.14023,-0.85954 17.14023,-18.85716 0,-17.99465 -17.33747,-18.74249 -17.33747,-18.74249 H 271.7699 c -0.53153,0 -0.95853,0.42979 -0.95853,1.28934 z m 22.3691,7.93921 c 0,0 9.00317,-0.21195 9.00317,9.48172 0,9.48173 -9.00317,9.48173 -9.00317,9.48173 H 284.2219 V 48.39658 c 0,-0.85955 0.65693,-0.66234 0.65693,-0.66234 l 8.30127,-0.021 z m 293.18011,-9.22834 h -8.78522 c -0.44606,-0.027 -0.85591,0.24168 -1.00632,0.65646 -0.0528,0.13389 -0.0754,0.2777 -0.0658,0.42093 V 76.30306 L 554.13433,38.48486 H 543.1783 c -0.51373,-0.0453 -0.99936,0.23807 -1.20642,0.70352 -0.0694,0.15101 -0.10658,0.31418 -0.11048,0.47984 v 58.9384 c -0.027,0.59707 0.46603,1.09104 1.07204,1.0715 h 8.81795 c 0.2888,0.018 0.57134,-0.0901 0.77341,-0.29451 0.20625,-0.20595 0.31493,-0.48815 0.29842,-0.77714 V 56.36608 l 25.7135,43.32417 0.11348,0.21796 h 7.57565 c 0.44531,0.024 0.85411,-0.24198 1.00335,-0.65646 0.0528,-0.13389 0.0753,-0.2777 0.0657,-0.42096 V 39.55615 c 0.021,-0.2717 -0.0675,-0.5409 -0.24798,-0.74769 -0.18103,-0.20295 -0.43958,-0.32246 -0.71365,-0.3297 m -127.48071,60.54756 22.3721,-59.15756 c 0.23056,-0.70578 -0.32039,-1.42281 -1.07204,-1.39531 h -10.04823 c -0.45672,-6.3e-4 -0.87345,0.25668 -1.07201,0.66233 L 454.35272,77.92369 439.67305,39.12077 c -0.19093,-0.41216 -0.61247,-0.67266 -1.07201,-0.66233 H 428.5348 c -0.53324,0.002 -0.98948,0.37806 -1.08693,0.89488 -0.033,0.16572 -0.03,0.33645 0.012,0.50043 l 22.60776,59.16957 c 0.19875,0.4055 0.61524,0.66297 1.07198,0.66233 h 6.78759 c 0.42012,-0.027 0.79005,-0.2831 0.9615,-0.66233 m 31.34255,-59.25195 v 59.15156 a 0.99437537,0.9802352 0 0 0 0.0657,0.42096 0.98840107,0.97435097 0 0 0 1.00035,0.65645 h 11.46675 a 1.0003497,0.98614945 0 0 0 0.77936,-0.29451 1.0809577,1.0656166 0 0 0 0.23297,-0.35912 1.1586235,1.1421417 0 0 0 0.0628,-0.4239 V 76.08267 h 12.31786 c 0,0 17.14623,-0.85954 17.14623,-18.85716 0,-17.99465 -17.35818,-18.63651 -17.35818,-18.63651 h -24.75491 c -0.32252,-0.10598 -0.95856,0.32381 -0.95856,1.18336 z m 22.37209,7.93921 c 0,0 9.00018,-0.21195 9.00018,9.48172 0,9.48173 -9.00018,9.48173 -9.00018,9.48173 h -8.98216 V 48.39387 c 0,-0.85954 0.65696,-0.66233 0.65696,-0.66233 z" /></svg>
