<svg width="256" height="261" viewBox="0 0 256 261" fill="none" xmlns="http://www.w3.org/2000/svg">
<g clip-path="url(#clip0_5_117)">
<path d="M109.308 -0.00140488C105.887 0.301124 96.6447 2.4049 96.6447 2.4049H96.6408C75.8083 7.78956 70.8843 26.6946 70.8843 26.6946C69.867 29.8736 69.4049 33.1316 69.269 36.201V40.3786C69.5454 46.8331 70.9809 51.6527 70.9809 51.6527C77.9397 82.5091 112.155 133.211 119.508 143.861C120.03 144.379 120.448 144.192 120.448 144.192C121.241 143.973 121.179 143.211 121.179 143.211L121.194 143.215C132.521 30.0065 109.308 -0.00129523 109.308 -0.00129523L109.308 -0.00140488ZM146.732 -0.00140488C146.732 -0.00140488 123.417 30.0224 134.752 143.297H134.767C134.855 144.016 135.365 144.166 135.365 144.166C136.124 144.46 136.512 143.731 136.512 143.731L136.516 143.738C144.058 132.816 178.079 82.3901 185.007 51.6522C185.007 51.6522 188.763 36.7749 185.137 26.694C185.137 26.694 179.987 7.49623 159.128 2.42294C159.128 2.42294 153.116 0.896939 146.732 -0.00195312L146.732 -0.00140488ZM39.1939 33.9841C39.1939 33.9841 19.3443 52.8239 18.3577 72.7971H18.3656V75.8235C18.3807 76.0513 18.3922 76.282 18.4066 76.5141C19.2616 92.6198 31.3776 102.152 31.3776 102.152C50.8992 121.178 98.168 145.199 109.152 150.649C109.306 150.707 109.873 150.892 110.207 150.471C110.207 150.471 110.38 150.34 110.459 150.103V149.602C110.451 149.573 110.436 149.544 110.422 149.513H110.426C80.3455 83.8007 39.1943 33.9834 39.1943 33.9834L39.1939 33.9841ZM216.797 33.9841C216.797 33.9841 175.77 83.6449 145.703 149.224L145.715 149.22C145.715 149.22 145.359 149.98 145.934 150.471C145.934 150.471 146.105 150.601 146.342 150.653H146.758C146.833 150.631 146.913 150.603 146.992 150.549V150.556C158.274 144.956 205.177 121.093 224.607 102.155C224.607 102.155 236.911 92.2741 237.556 76.4096C238.976 54.3755 216.797 33.9834 216.797 33.9834L216.797 33.9841ZM253.724 99.222C253.724 99.222 186.837 135.117 152.254 158.444L152.257 158.448L152.265 158.455C152.265 158.455 151.638 158.866 151.857 159.603C151.857 159.603 152.185 160.197 152.663 160.197V160.201C165.05 160.222 211.924 160.275 213.099 160.056C213.099 160.056 219.16 159.813 226.649 156.936C226.649 156.936 243.322 151.635 251.983 132.706C251.983 132.706 255.94 124.791 255.997 113.671V113.199C255.968 108.911 255.364 104.164 253.724 99.222H253.724ZM2.24874 99.3894C-3.83693 118.229 4.35591 133.41 4.36914 133.434C12.9071 151.474 29.2047 156.94 29.2047 156.94C36.7291 160.032 44.2553 160.245 44.2553 160.245C45.4305 160.46 91.0556 160.267 103.281 160.21C103.798 160.206 104.083 159.686 104.083 159.686C104.119 159.628 104.15 159.571 104.164 159.518V159.047C104.063 158.731 103.793 158.509 103.793 158.509L103.801 158.505C69.2348 135.185 2.24929 99.3903 2.24929 99.3903L2.24874 99.3894ZM101.884 166.001L23.2 168.76C31.733 183.972 46.1036 195.793 61.0735 192.163C71.4043 189.58 94.8081 173.255 102.534 167.739L102.508 167.718C103.109 167.178 102.894 166.745 102.894 166.745C102.697 166.038 101.884 166.039 101.884 166.039L101.884 166.001ZM153.999 166.059L153.991 166.087C153.991 166.087 153.3 166.175 153.107 166.693C153.107 166.693 152.939 167.4 153.404 167.751L153.396 167.758C160.93 173.16 183.766 189.126 194.768 192.226C194.768 192.226 196.435 192.793 199.228 192.894H200.906C208.277 192.636 221.118 188.849 232.786 168.801L153.999 166.059Z" fill="#CF0A2C"/>
<path d="M3.16952 248.672H20.9676C22.2354 248.672 23.3244 248.379 24.2347 247.794C25.1449 247.177 25.6 246.088 25.6 244.527C25.6 242.999 25.1449 241.927 24.2347 241.309C23.3244 240.691 22.2354 240.382 20.9676 240.382H12.6781C11.0852 240.382 9.6386 240.22 8.33829 239.895C7.03797 239.537 5.9327 238.968 5.02248 238.188C4.11225 237.408 3.41333 236.384 2.92571 235.116C2.4381 233.816 2.19429 232.239 2.19429 230.386C2.19429 228.501 2.4381 226.924 2.92571 225.656C3.41333 224.356 4.11225 223.316 5.02248 222.536C5.9327 221.755 7.03797 221.203 8.33829 220.878C9.6386 220.553 11.0852 220.39 12.6781 220.39H31.4514V226.242H13.6533C12.3855 226.242 11.2965 226.55 10.3863 227.168C9.47606 227.753 9.02095 228.826 9.02095 230.386C9.02095 231.914 9.47606 232.987 10.3863 233.605C11.2965 234.222 12.3855 234.531 13.6533 234.531H21.9429C23.5357 234.531 24.9824 234.71 26.2827 235.067C27.583 235.393 28.6883 235.945 29.5985 236.725C30.5087 237.506 31.2076 238.546 31.6952 239.846C32.1829 241.114 32.4267 242.674 32.4267 244.527C32.4267 246.445 32.1829 248.038 31.6952 249.306C31.2076 250.574 30.5087 251.598 29.5985 252.378C28.6883 253.158 27.583 253.711 26.2827 254.036C24.9824 254.361 23.5357 254.523 21.9429 254.523H3.16952V248.672ZM48.8575 220.39H56.2206L71.4343 254.523H63.8274L60.9505 247.697H44.1276L41.2507 254.523H33.6438L48.8575 220.39ZM58.4636 241.845L52.5147 227.899L46.6145 241.845H58.4636ZM73.4019 220.39H83.2518L92.3703 245.698L101.538 220.39H111.387V254.523H104.707V230.581L96.0762 254.523H88.7131L80.2286 230.581V254.523H73.4019V220.39ZM117.503 248.672H135.301C136.569 248.672 137.658 248.379 138.568 247.794C139.478 247.177 139.933 246.088 139.933 244.527C139.933 242.999 139.478 241.927 138.568 241.309C137.658 240.691 136.569 240.382 135.301 240.382H127.011C125.419 240.382 123.972 240.22 122.672 239.895C121.371 239.537 120.266 238.968 119.356 238.188C118.446 237.408 117.747 236.384 117.259 235.116C116.771 233.816 116.528 232.239 116.528 230.386C116.528 228.501 116.771 226.924 117.259 225.656C117.747 224.356 118.446 223.316 119.356 222.536C120.266 221.755 121.371 221.203 122.672 220.878C123.972 220.553 125.419 220.39 127.011 220.39H145.785V226.242H127.987C126.719 226.242 125.63 226.55 124.72 227.168C123.809 227.753 123.354 228.826 123.354 230.386C123.354 231.914 123.809 232.987 124.72 233.605C125.63 234.222 126.719 234.531 127.987 234.531H136.276C137.869 234.531 139.316 234.71 140.616 235.067C141.916 235.393 143.022 235.945 143.932 236.725C144.842 237.506 145.541 238.546 146.029 239.846C146.516 241.114 146.76 242.674 146.76 244.527C146.76 246.445 146.516 248.038 146.029 249.306C145.541 250.574 144.842 251.598 143.932 252.378C143.022 253.158 141.916 253.711 140.616 254.036C139.316 254.361 137.869 254.523 136.276 254.523H117.503V248.672ZM151.39 220.39H158.217V240.382C158.217 242.105 158.445 243.552 158.9 244.722C159.355 245.86 159.973 246.787 160.753 247.502C161.565 248.184 162.492 248.672 163.532 248.965C164.605 249.257 165.759 249.403 166.994 249.403C168.197 249.403 169.319 249.257 170.359 248.965C171.432 248.672 172.358 248.184 173.138 247.502C173.951 246.787 174.585 245.86 175.04 244.722C175.528 243.552 175.771 242.105 175.771 240.382V220.39H182.598V240.382C182.598 243.211 182.176 245.584 181.33 247.502C180.518 249.387 179.396 250.915 177.966 252.085C176.568 253.223 174.926 254.036 173.041 254.523C171.155 255.011 169.14 255.255 166.994 255.255C164.849 255.255 162.817 255.011 160.899 254.523C159.014 254.036 157.356 253.223 155.925 252.085C154.528 250.915 153.422 249.387 152.61 247.502C151.797 245.584 151.39 243.211 151.39 240.382V220.39ZM187.973 220.39H196.75L210.404 245.21V220.39H217.23V254.523H208.453L194.8 229.704V254.523H187.973V220.39ZM236.234 254.523C234.219 254.523 232.317 254.231 230.529 253.646C228.774 253.028 227.23 252.053 225.897 250.72C224.564 249.387 223.507 247.632 222.727 245.454C221.98 243.276 221.606 240.61 221.606 237.457C221.606 234.303 221.98 231.638 222.727 229.46C223.507 227.282 224.564 225.526 225.897 224.194C227.23 222.861 228.774 221.902 230.529 221.317C232.317 220.699 234.219 220.39 236.234 220.39H252.813V226.242H237.21C236.007 226.242 234.869 226.42 233.796 226.778C232.723 227.135 231.781 227.753 230.968 228.631C230.188 229.476 229.57 230.614 229.115 232.044C228.66 233.475 228.432 235.279 228.432 237.457C228.432 239.635 228.66 241.439 229.115 242.869C229.57 244.3 230.188 245.454 230.968 246.331C231.781 247.177 232.723 247.778 233.796 248.136C234.869 248.493 236.007 248.672 237.21 248.672H245.987V240.382H239.16V234.531H252.813V254.523H236.234Z" fill="#232527"/>
</g>
<defs>
<clipPath id="clip0_5_117">
<rect width="256" height="260.326" fill="white"/>
</clipPath>
</defs>
</svg>
