<?xml version="1.0" encoding="UTF-8" standalone="no"?>
<svg
   fill="none"
   height="160"
   viewBox="0 0 742.95013 160"
   width="742.95013"
   version="1.1"
   id="svg50"
   sodipodi:docname="threema_signal.svg"
   inkscape:version="1.1.2 (b8e25be833, 2022-02-05)"
   xmlns:inkscape="http://www.inkscape.org/namespaces/inkscape"
   xmlns:sodipodi="http://sodipodi.sourceforge.net/DTD/sodipodi-0.dtd"
   xmlns="http://www.w3.org/2000/svg"
   xmlns:svg="http://www.w3.org/2000/svg">
  <defs
     id="defs54" />
  <sodipodi:namedview
     id="namedview52"
     pagecolor="#ffffff"
     bordercolor="#666666"
     borderopacity="1.0"
     inkscape:pageshadow="2"
     inkscape:pageopacity="0.0"
     inkscape:pagecheckerboard="0"
     showgrid="false"
     inkscape:zoom="2.28125"
     inkscape:cx="360.54795"
     inkscape:cy="90.082192"
     inkscape:window-width="2560"
     inkscape:window-height="1521"
     inkscape:window-x="-9"
     inkscape:window-y="-9"
     inkscape:window-maximized="1"
     inkscape:current-layer="text2809"
     fit-margin-top="0"
     fit-margin-left="0"
     fit-margin-right="0"
     fit-margin-bottom="0" />
  <g
     aria-label="Threema"
     id="text2809"
     style="font-size:144.768px;font-family:'Droid Sans';-inkscape-font-specification:'Droid Sans';letter-spacing:-3.5px;word-spacing:0px;fill:#000000;stroke-width:3.6192">
    <path
       d="m 258.25173,48.71581 h -28.91118 v 82.77507 H 206.4378 V 48.71581 H 177.66798 V 30.124996 h 80.58375 z"
       style="-inkscape-font-specification:'Gadugi Bold'"
       id="path31988" />
    <path
       d="M 335.68893,131.49088 H 313.42236 V 90.350749 q 0,-15.904688 -11.59275,-15.904688 -5.93775,0 -9.6135,4.453312 -3.67575,4.453313 -3.67575,11.310001 V 131.49088 H 266.20311 V 24.328621 h 22.33725 v 45.522752 h 0.28275 q 8.19975,-12.511688 22.26657,-12.511688 24.59925,0 24.59925,29.688751 z"
       style="-inkscape-font-specification:'Gadugi Bold'"
       id="path31985" />
    <path
       d="m 397.08006,79.252811 q -4.02919,-2.191313 -9.40144,-2.191313 -7.28082,0 -11.38069,5.37225 -4.09988,5.301563 -4.09988,14.490938 V 131.49088 H 349.8608 V 59.106873 h 22.33725 v 13.430625 h 0.28275 q 5.30157,-14.703 19.08563,-14.703 3.53438,0 5.51363,0.84825 z"
       style="-inkscape-font-specification:'Gadugi Bold'"
       id="path31982" />
    <path
       d="m 469.00363,101.66075 h -47.21925 q 1.131,15.76331 19.86318,15.76331 11.94619,0 20.99419,-5.655 v 16.11675 q -10.03762,5.37225 -26.08369,5.37225 -17.5305,0 -27.21469,-9.68419 -9.68418,-9.75487 -9.68418,-27.143996 0,-18.025313 10.46175,-28.557751 10.46175,-10.532438 25.73025,-10.532438 15.834,0 24.45787,9.401438 8.69457,9.401438 8.69457,25.518188 z M 448.29219,87.947374 q 0,-15.551251 -12.58238,-15.551251 -5.37225,0 -9.33075,4.453313 -3.88781,4.453312 -4.73606,11.097938 z"
       style="-inkscape-font-specification:'Gadugi Bold'"
       id="path31979" />
    <path
       d="m 543.82537,101.66075 h -47.21925 q 1.131,15.76331 19.86319,15.76331 11.94619,0 20.99419,-5.655 v 16.11675 q -10.03763,5.37225 -26.08369,5.37225 -17.5305,0 -27.21469,-9.68419 -9.68419,-9.75487 -9.68419,-27.143996 0,-18.025313 10.46175,-28.557751 10.46175,-10.532438 25.73026,-10.532438 15.834,0 24.45787,9.401438 8.69456,9.401438 8.69456,25.518188 z M 523.11394,87.947374 q 0,-15.551251 -12.58238,-15.551251 -5.37225,0 -9.33075,4.453313 -3.88781,4.453312 -4.73606,11.097938 z"
       style="-inkscape-font-specification:'Gadugi Bold'"
       id="path31976" />
    <path
       d="M 668.5525,131.49088 H 646.28593 V 90.209374 q 0,-15.763313 -11.59275,-15.763313 -5.51362,0 -8.97731,4.736062 -3.46369,4.736063 -3.46369,11.804813 V 131.49088 H 599.91493 V 89.785249 q 0,-15.339188 -11.38069,-15.339188 -5.72568,0 -9.18937,4.524 -3.393,4.524 -3.393,12.299625 V 131.49088 H 553.61462 V 59.106873 h 22.33725 v 11.31 h 0.28275 q 3.46369,-5.796375 9.68419,-9.401438 6.29118,-3.67575 13.71337,-3.67575 15.33919,0 20.99419,13.501313 8.27044,-13.501313 24.3165,-13.501313 23.60963,0 23.60963,29.123251 z"
       style="-inkscape-font-specification:'Gadugi Bold'"
       id="path31973" />
    <path
       d="m 742.95014,131.49088 h -21.13556 v -10.39107 h -0.28275 q -7.28081,12.15825 -21.55969,12.15825 -10.53244,0 -16.61156,-5.93775 -6.00844,-6.00844 -6.00844,-15.97537 0,-21.064879 24.95269,-24.316504 l 19.65112,-2.615438 q 0,-11.8755 -12.86512,-11.8755 -12.93581,0 -24.59925,7.704938 V 63.41881 q 4.66537,-2.403375 12.72375,-4.24125 8.12906,-1.837875 14.77369,-1.837875 30.96112,0 30.96112,30.890439 z m -20.99419,-29.40601 v -4.877434 l -13.14787,1.696501 q -10.88588,1.413753 -10.88588,9.825563 0,3.81712 2.61544,6.29119 2.68613,2.40337 7.21013,2.40337 6.29118,0 10.24968,-4.31194 3.9585,-4.38262 3.9585,-11.02725 z"
       style="-inkscape-font-specification:'Gadugi Bold'"
       id="path31970" />
  </g>
  <g
     fill="#3a76f0"
     id="g48">
    <path
       d="m 80,0 c 4.1505,0 8.2271,0.31607 12.2072,0.925452 L 91.0628,8.3387 C 87.4559,7.78644 83.7614,7.5 80,7.5 76.2388,7.5 72.5445,7.78641 68.9377,8.33862 L 67.7933,0.925375 C 71.7732,0.316043 75.8497,0 80,0 Z"
       id="path14" />
    <path
       d="m 98.9849,2.26619 -1.7798,7.28755 c 7.3099,1.77896 14.1849,4.66606 20.4389,8.47306 l 3.895,-6.411 C 114.638,7.41489 107.051,4.22922 98.9849,2.26619 Z"
       id="path16" />
    <path
       d="m 127.279,15.4591 -4.432,6.0507 c 5.977,4.3861 11.257,9.6664 15.643,15.6437 l 6.051,-4.4324 c -4.84,-6.5957 -10.666,-12.4222 -17.262,-17.262 z"
       id="path18" />
    <path
       d="m 148.384,38.4618 -6.411,3.8942 c 3.807,6.2541 6.694,13.1299 8.473,20.4395 l 7.288,-1.7798 c -1.963,-8.0657 -5.149,-15.6528 -9.35,-22.5539 z"
       id="path20" />
    <path
       d="m 159.075,67.7934 -7.414,1.1444 c 0.553,3.6067 0.839,7.301 0.839,11.0622 0,3.7614 -0.286,7.4559 -0.839,11.0628 l 7.414,1.1444 C 159.684,88.2271 160,84.1505 160,80 c 0,-4.1503 -0.316,-8.2267 -0.925,-12.2066 z"
       id="path22" />
    <path
       d="m 141.973,117.645 c 3.807,-6.255 6.694,-13.13 8.473,-20.44 l 7.288,1.7798 c -1.963,8.0662 -5.149,15.6532 -9.35,22.5542 z"
       id="path24" />
    <path
       d="m 138.49,122.847 6.051,4.432 c -4.84,6.596 -10.666,12.422 -17.262,17.262 l -4.433,-6.051 c 5.978,-4.386 11.258,-9.666 15.644,-15.643 z"
       id="path26" />
    <path
       d="m 117.644,141.973 3.894,6.411 c -6.901,4.201 -14.488,7.387 -22.5537,9.35 l -1.7798,-7.288 c 7.3095,-1.779 14.1855,-4.666 20.4395,-8.473 z"
       id="path28" />
    <path
       d="m 91.0622,151.661 1.1445,7.414 C 88.2268,159.684 84.1503,160 80,160 c -4.1505,0 -8.2272,-0.316 -12.2073,-0.925 l 1.1442,-7.413 c 3.6054,0.552 7.2997,0.838 11.0631,0.838 3.7612,0 7.4555,-0.286 11.0622,-0.839 z"
       id="path30" />
    <path
       d="m 62.7945,150.448 -1.7794,7.286 c -6.0589,-1.475 -11.8477,-3.639 -17.2785,-6.406 l -7.5927,1.772 -1.7042,-7.304 10.2604,-2.394 2.4408,1.243 c 4.9187,2.506 10.1623,4.467 15.6536,5.803 z"
       id="path32" />
    <path
       d="m 28.1097,147.273 1.7042,7.304 -13.0145,3.036 C 8.13861,159.634 0.365682,151.861 2.38654,143.201 l 3.03673,-13.015 7.30383,1.704 -3.03675,13.015 c -0.75782,3.248 2.15705,6.162 5.40485,5.405 z"
       id="path34" />
    <path
       d="M 14.2041,125.56 6.90027,123.856 8.6719,116.263 C 5.90526,110.832 3.74067,105.043 2.26605,98.9843 L 9.55191,97.2049 C 10.8879,102.696 12.849,107.94 15.3547,112.859 l 1.2435,2.441 z"
       id="path36" />
    <path
       d="M 8.33759,91.0624 0.925362,92.2066 C 0.316038,88.2267 0,84.1503 0,80 0,75.8495 0.316067,71.7729 0.925446,67.7928 L 8.33869,68.9372 C 7.78644,72.5442 7.5,76.2386 7.5,80 c 0,3.7631 0.28613,7.4572 0.83759,11.0624 z"
       id="path38" />
    <path
       d="M 9.55373,62.795 2.26618,61.0152 C 4.2292,52.9495 7.41488,45.3624 11.6158,38.4613 l 6.411,3.8942 c -3.807,6.2541 -6.6941,13.1299 -8.47307,20.4395 z"
       id="path40" />
    <path
       d="M 21.5098,37.1531 15.4591,32.7207 C 20.2989,26.125 26.1254,20.2986 32.7211,15.4588 l 4.4324,6.0507 c -5.9773,4.3861 -11.2576,9.6663 -15.6437,15.6436 z"
       id="path42" />
    <path
       d="M 42.356,18.0266 38.4617,11.6155 C 45.3628,7.41468 52.9499,4.22905 61.0157,2.26606 l 1.7798,7.28755 C 55.4859,11.3326 48.6101,14.2195 42.356,18.0266 Z"
       id="path44" />
    <path
       d="m 145,80 c 0,35.899 -29.101,65 -65,65 -11.3866,0 -22.0893,-2.928 -31.3965,-8.072 -0.8961,-0.495 -1.9417,-0.658 -2.9389,-0.426 l -28.9134,6.747 6.7465,-28.914 c 0.2326,-0.997 0.0692,-2.043 -0.426,-2.939 C 17.9278,102.089 15,91.3865 15,80 15,44.1015 44.1015,15 80,15 c 35.899,0 65,29.1015 65,65 z"
       id="path46" />
  </g>
</svg>
